<?xml version="1.0" encoding="utf-8"?>
<!-- Generator: Adobe Illustrator 16.0.0, SVG Export Plug-In . SVG Version: 6.00 Build 0)  -->
<!DOCTYPE svg PUBLIC "-//W3C//DTD SVG 1.1//EN" "http://www.w3.org/Graphics/SVG/1.1/DTD/svg11.dtd">
<svg version="1.1" id="Layer_1" xmlns="http://www.w3.org/2000/svg" xmlns:xlink="http://www.w3.org/1999/xlink" x="0px" y="0px"
	 width="986.375px" height="910px" viewBox="0 0 986.375 910" enable-background="new 0 0 986.375 910" xml:space="preserve">
<g>
	<g>
		<g>
			<path opacity="0.1" fill="#D1E6EC" d="M486.018,253.192C452.803,132.698,303.12,93.881,217.339,183.934
				c-1.233,1.293-2.464,2.608-3.693,3.945C90.667,321.563,148.763,651.004,405.419,734.503
				C662.078,818,929.037,665.525,944.035,529.222c14.994-136.305-103.412-179.134-287.17-141.019
				C553.045,409.737,506.696,328.204,486.018,253.192z"/>
			<path opacity="0.1" fill="#D1E6EC" d="M779.996,721.146c-30.258,17.172-28.616,49.007,3.746,60.037
				c10.696,3.645,24.493,4.854,42.239,1.436c67.602-13.027,90.963-53.727,51.898-80.806
				C853.768,685.101,809.984,704.129,779.996,721.146z"/>
			<path opacity="0.1" fill="#D1E6EC" d="M761.993,283.175c-34.547,4.106-45.363,34.091-19.806,56.797
				c8.45,7.504,20.697,13.963,38.385,17.686c67.369,14.185,100.528-26.103,79.151-54.385
				C841.779,279.536,796.233,279.104,761.993,283.175z"/>
			<path opacity="0.1" fill="#D1E6EC" d="M882.882,663.357c-9.744,13.757-2.168,30.103,14.575,30.722
				c5.536,0.205,11.923-1.353,19.072-5.951c27.224-17.52,28.844-42.454,5.669-50.382
				C907.897,632.854,892.542,649.725,882.882,663.357z"/>
			<path opacity="0.1" fill="#D1E6EC" d="M145.862,583.35c9.882,13.66,27.798,11.754,33.78-3.899
				c1.977-5.174,2.562-11.723,0.512-19.97c-7.812-31.418-30.896-40.989-45.869-21.604
				C125.043,549.839,136.067,569.813,145.862,583.35z"/>
		</g>
	</g>
	<ellipse opacity="0.1" fill="#D1E6EC" cx="538.132" cy="823.643" rx="387.929" ry="18.823"/>
	<g>
		<g>
			<g>
				<path fill="#FD4059" d="M849.62,251.197c-7.397,0-13.415-6.018-13.415-13.415c0-7.4,6.018-13.42,13.415-13.42
					s13.415,6.02,13.415,13.42C863.035,245.18,857.017,251.197,849.62,251.197z M849.62,228.573c-5.077,0-9.208,4.13-9.208,9.209
					c0,5.076,4.131,9.206,9.208,9.206s9.209-4.13,9.209-9.206C858.829,232.703,854.697,228.573,849.62,228.573z"/>
			</g>
			<g>
				<path fill="#FD4059" d="M891.796,314.422c-7.397,0-13.419-6.02-13.419-13.419c0-7.397,6.021-13.415,13.419-13.415
					s13.415,6.018,13.415,13.415C905.211,308.402,899.194,314.422,891.796,314.422z M891.796,291.797
					c-5.077,0-9.209,4.13-9.209,9.206c0,5.079,4.132,9.209,9.209,9.209c5.076,0,9.209-4.13,9.209-9.209
					C901.005,295.927,896.873,291.797,891.796,291.797z"/>
			</g>
			<g>
				<g>
					<g>
						<path fill="#0172CE" d="M869.782,350.909c-1.16,0-2.105-0.943-2.105-2.105v-9.281c0-1.163,0.945-2.105,2.105-2.105
							s2.105,0.942,2.105,2.105v9.281C871.887,349.966,870.942,350.909,869.782,350.909z"/>
					</g>
					<g>
						<path fill="#0172CE" d="M869.782,367.15c-1.16,0-2.105-0.943-2.105-2.105v-9.281c0-1.162,0.945-2.104,2.105-2.104
							s2.105,0.941,2.105,2.104v9.281C871.887,366.207,870.942,367.15,869.782,367.15z"/>
					</g>
				</g>
				<g>
					<g>
						<path fill="#0172CE" d="M882.811,354.39h-8.338c-1.165,0-2.105-0.944-2.105-2.105c0-1.164,0.94-2.104,2.105-2.104h8.338
							c1.161,0,2.102,0.94,2.102,2.104C884.913,353.445,883.972,354.39,882.811,354.39z"/>
					</g>
					<g>
						<path fill="#0172CE" d="M865.09,354.39h-8.334c-1.165,0-2.105-0.944-2.105-2.105c0-1.164,0.94-2.104,2.105-2.104h8.334
							c1.165,0,2.105,0.94,2.105,2.104C867.196,353.445,866.255,354.39,865.09,354.39z"/>
					</g>
				</g>
			</g>
			<g>
				<g>
					<g>
						<g>
							<path fill="#004FC3" d="M836.205,291.509c-1.164,0-2.105-0.943-2.105-2.105v-9.281c0-1.162,0.941-2.105,2.105-2.105
								c1.16,0,2.105,0.943,2.105,2.105v9.281C838.31,290.565,837.365,291.509,836.205,291.509z"/>
						</g>
						<g>
							<path fill="#004FC3" d="M836.205,307.75c-1.164,0-2.105-0.942-2.105-2.105v-9.281c0-1.162,0.941-2.103,2.105-2.103
								c1.16,0,2.105,0.94,2.105,2.103v9.281C838.31,306.808,837.365,307.75,836.205,307.75z"/>
						</g>
					</g>
					<g>
						<g>
							<g>
								<path fill="#004FC3" d="M849.23,294.987h-8.338c-1.16,0-2.102-0.942-2.102-2.103c0-1.165,0.941-2.105,2.102-2.105h8.338
									c1.165,0,2.105,0.94,2.105,2.105C851.335,294.045,850.395,294.987,849.23,294.987z"/>
							</g>
						</g>
						<g>
							<path fill="#004FC3" d="M831.513,294.987h-8.338c-1.161,0-2.105-0.942-2.105-2.103c0-1.165,0.944-2.105,2.105-2.105h8.338
								c1.16,0,2.105,0.94,2.105,2.105C833.619,294.045,832.673,294.987,831.513,294.987z"/>
						</g>
					</g>
				</g>
			</g>
		</g>
		<g>
			<g>
				<g>
					<path fill="#FD4059" d="M210.08,251.434c0,7.397-6.02,13.415-13.419,13.415c-7.397,0-13.415-6.018-13.415-13.415
						c0-7.398,6.018-13.418,13.415-13.418C204.061,238.016,210.08,244.035,210.08,251.434z M187.454,251.434
						c0,5.076,4.13,9.206,9.207,9.206c5.079,0,9.209-4.13,9.209-9.206c0-5.077-4.13-9.209-9.209-9.209
						C191.584,242.225,187.454,246.356,187.454,251.434z"/>
				</g>
			</g>
			<g>
				<path fill="#0172CE" d="M211.178,191.042c0,7.398-6.018,13.418-13.415,13.418s-13.419-6.02-13.419-13.418
					c0-7.397,6.022-13.416,13.419-13.416S211.178,183.645,211.178,191.042z M188.555,191.042c0,5.077,4.132,9.209,9.208,9.209
					s9.207-4.132,9.207-9.209c0-5.076-4.13-9.207-9.207-9.207S188.555,185.966,188.555,191.042z"/>
			</g>
			<g>
				<g>
					<g>
						<path fill="#FD4059" d="M216.866,154.148c0,1.161-0.943,2.104-2.105,2.104h-9.281c-1.163,0-2.105-0.943-2.105-2.104
							c0-1.163,0.943-2.105,2.105-2.105h9.281C215.923,152.042,216.866,152.985,216.866,154.148z"/>
					</g>
					<g>
						<path fill="#FD4059" d="M233.108,154.148c0,1.161-0.943,2.104-2.104,2.104h-9.283c-1.16,0-2.103-0.943-2.103-2.104
							c0-1.163,0.943-2.105,2.103-2.105h9.283C232.165,152.042,233.108,152.985,233.108,154.148z"/>
					</g>
				</g>
				<g>
					<g>
						<path fill="#FD4059" d="M220.346,141.12v8.337c0,1.163-0.941,2.104-2.104,2.104s-2.103-0.942-2.103-2.104v-8.337
							c0-1.162,0.94-2.104,2.103-2.104S220.346,139.958,220.346,141.12z"/>
					</g>
					<g>
						<path fill="#FD4059" d="M220.346,158.837v8.338c0,1.162-0.941,2.104-2.104,2.104s-2.103-0.943-2.103-2.104v-8.338
							c0-1.161,0.94-2.104,2.103-2.104S220.346,157.676,220.346,158.837z"/>
					</g>
				</g>
			</g>
			<g>
				<g>
					<g>
						<g>
							<path fill="#004FC3" d="M156.909,227.094c0,1.16-0.943,2.105-2.105,2.105h-9.281c-1.163,0-2.104-0.945-2.104-2.105
								c0-1.162,0.941-2.105,2.104-2.105h9.281C155.966,224.988,156.909,225.932,156.909,227.094z"/>
						</g>
						<g>
							<path fill="#004FC3" d="M173.15,227.094c0,1.16-0.943,2.105-2.105,2.105h-9.279c-1.165,0-2.105-0.945-2.105-2.105
								c0-1.162,0.94-2.105,2.105-2.105h9.279C172.208,224.988,173.15,225.932,173.15,227.094z"/>
						</g>
					</g>
					<g>
						<g>
							<path fill="#004FC3" d="M160.39,214.066v8.336c0,1.162-0.945,2.105-2.105,2.105c-1.165,0-2.105-0.943-2.105-2.105v-8.336
								c0-1.163,0.941-2.105,2.105-2.105C159.445,211.961,160.39,212.903,160.39,214.066z"/>
						</g>
						<g>
							<path fill="#004FC3" d="M160.39,231.783v8.336c0,1.165-0.945,2.105-2.105,2.105c-1.165,0-2.105-0.94-2.105-2.105v-8.336
								c0-1.163,0.941-2.104,2.105-2.104C159.445,229.68,160.39,230.62,160.39,231.783z"/>
						</g>
					</g>
				</g>
			</g>
		</g>
		<g>
			<path fill="#FFFFFF" d="M215.36,358.043h-37.069c-4.824,0-8.734-3.91-8.734-8.734v-37.07c0-4.824,3.91-8.736,8.734-8.736h37.069
				c4.824,0,8.736,3.912,8.736,8.736v37.07C224.096,354.133,220.184,358.043,215.36,358.043z"/>
			<path fill="#FD4059" d="M212.757,326.93c0,2.437-0.924,4.874-2.772,6.727l-12.632,12.632l-12.632-12.632
				c-1.851-1.853-2.772-4.29-2.772-6.727s0.922-4.874,2.768-6.72c3.452-3.45,8.708-2.826,12.636,3.005
				c3.927-5.831,9.184-6.455,12.634-3.005C211.833,322.056,212.757,324.493,212.757,326.93z"/>
		</g>
	</g>
	<g>
		<g>
			<path fill="#004FC3" d="M675.029,574.033l5.35,1.766l2.843,0.937l8.044,2.65c0,0,119.812-96.918,89.106-154.654
				c-9.449-17.771-38.02-16.669-54.05,42.752C711.465,522.563,675.029,574.033,675.029,574.033z"/>
			<g>
				<path fill="#023386" d="M680.379,575.799l2.843,0.937c24.065-25.34,42.645-55.289,54.353-76.806
					c13.908-25.552,21.418-45.071,21.492-45.267c0.27-0.696-0.083-1.478-0.779-1.742c-0.696-0.27-1.479,0.08-1.745,0.774
					c-0.074,0.197-7.534,19.582-21.363,44.98C723.41,520.299,704.665,550.485,680.379,575.799z"/>
			</g>
		</g>
		<g>
			<path fill="#004FC3" d="M676.392,229.879l5.247,0.659l2.785,0.348l7.882,0.988c0,0,92.778-110.841,54.096-158.438
				c-11.911-14.653-38.008-8.479-42.031,49.108C700.64,175.926,676.392,229.879,676.392,229.879z"/>
			<g>
				<path fill="#023386" d="M681.639,230.538l2.785,0.348c17.576-27.667,29.267-58.589,36.164-80.509
					c8.185-26.028,11.574-45.352,11.604-45.543c0.125-0.69-0.34-1.347-1.031-1.463c-0.688-0.122-1.348,0.341-1.464,1.029
					c-0.032,0.194-3.397,19.383-11.541,45.258C711.221,171.684,699.422,202.854,681.639,230.538z"/>
			</g>
		</g>
		<g>
			<path fill="#0172CE" d="M660.143,251.019l6.399,4.204l3.394,2.228l9.615,6.313c0,0,191.288-84.875,171.371-171.411
				c-6.13-26.639-43.988-35.265-85.949,37.014C726.074,196.366,660.143,251.019,660.143,251.019z"/>
			<g>
				<path fill="#004FC3" d="M666.542,255.223l3.394,2.228c40.498-24.749,75.414-57.477,98.357-81.567
					c27.24-28.606,43.971-51.559,44.137-51.789c0.597-0.819,0.414-1.968-0.41-2.56c-0.816-0.598-1.969-0.416-2.562,0.403
					c-0.166,0.231-16.78,23.023-43.867,51.458C742.531,197.603,707.313,230.583,666.542,255.223z"/>
			</g>
		</g>
		<g>
			<path fill="#0172CE" d="M647.233,592.675l5.897,5.643l3.129,2.992l8.86,8.475c0,0,216.95-52.055,212.776-146.631
				c-1.28-29.116-39.313-45.468-97.262,22.211C726.912,548.103,647.233,592.675,647.233,592.675z"/>
			<g>
				<path fill="#004FC3" d="M653.13,598.317l3.129,2.992c47.236-18.13,90.168-45.701,118.875-66.533
					c34.083-24.73,56.06-45.566,56.275-45.775c0.783-0.744,0.813-1.983,0.066-2.763c-0.746-0.785-1.985-0.816-2.765-0.072
					c-0.22,0.21-22.039,20.899-55.931,45.481C743.927,552.576,700.632,580.355,653.13,598.317z"/>
			</g>
		</g>
		<g>
			<path fill="#004FC3" d="M250.483,210.003c8.247,23.439,31.971,21.529,32.417,40.866c0.446,19.334,13.303,33.399,29.808,29.039
				c16.509-4.363,28.413-8.495,36.971,10.341c8.552,18.836,33.291,27.242,42.146,11.604c2.209-3.892,4.592-8.11,6.921-12.248
				c0.634-1.13,1.272-2.257,1.894-3.365c0.147-0.257,0.294-0.512,0.435-0.769c9.375-16.644,4.96-37.875-10.609-48.937
				c-6.308-4.476-13.697-6.805-21.812-3.975c-25.409,8.851-17.394-17.538-33.295-27.75c-18.312-11.77-32.783,3.282-45.434-6.888
				C272.323,183.778,242.236,186.562,250.483,210.003z"/>
			<g>
				<path fill="#023386" d="M281.748,218.772l116.998,70.832c0.634-1.13,1.272-2.257,1.894-3.365l-116.89-70.771
					c-0.912-0.551-2.099-0.261-2.652,0.65C280.545,217.031,280.835,218.221,281.748,218.772z"/>
			</g>
		</g>
		<g>
			<path fill="#0172CE" d="M267.27,78.533c-3.289,30.581,24.228,41.097,14.412,62.935c-9.814,21.833-2.953,44.398,17.808,48.332
				c20.767,3.93,36.267,5.66,35.78,31.264c-0.491,25.6,22.655,48.186,40.888,35.438c4.542-3.167,9.451-6.61,14.26-9.988
				c1.312-0.924,2.624-1.844,3.91-2.747c0.303-0.21,0.601-0.419,0.895-0.628c19.348-13.592,25.74-39.657,14.249-60.318
				c-4.654-8.363-11.67-14.906-22.243-16.072c-33.101-3.664-10.075-28.865-22.388-48.752c-14.177-22.911-38.37-13.814-47.077-31.922
				C305.647,60.889,270.558,47.952,267.27,78.533z"/>
			<g>
				<path fill="#004FC3" d="M297.512,105.001l92.905,141.512c1.312-0.924,2.624-1.844,3.91-2.747L301.509,102.38
					c-0.723-1.103-2.207-1.411-3.309-0.687C297.098,102.417,296.789,103.898,297.512,105.001z"/>
			</g>
		</g>
		<g>
			<path fill="#004FC3" d="M253.127,762.27c21.675,12.151,38.223-4.954,51.331,9.271c13.106,14.222,32.048,16.289,41.561,2.114
				c9.514-14.182,15.722-25.147,34.586-16.658c18.865,8.491,42.991-1.535,39.309-19.128c-0.912-4.381-1.911-9.122-2.895-13.766
				c-0.27-1.27-0.537-2.534-0.798-3.779c-0.063-0.288-0.12-0.578-0.183-0.864c-3.958-18.687-21.293-31.712-40.291-29.731
				c-7.692,0.803-14.779,3.938-19.002,11.422c-13.229,23.428-24.644-1.676-43.329,1.158c-21.521,3.26-22.443,24.12-38.66,24.841
				C252.201,728.156,231.45,750.118,253.127,762.27z"/>
			<g>
				<path fill="#023386" d="M282.392,748.202l134.627-24.1c-0.27-1.27-0.537-2.534-0.798-3.779l-134.507,24.078
					c-1.049,0.187-1.749,1.189-1.563,2.238C280.34,747.69,281.343,748.391,282.392,748.202z"/>
			</g>
		</g>
		<g>
			<path fill="#0172CE" d="M188.953,649.911c17.729,25.132,45.336,14.852,52.392,37.732c7.054,22.872,27.108,35.284,45.293,24.523
				c18.187-10.767,30.97-19.704,47.514-0.161c16.542,19.546,48.839,21.212,54.108-0.402c1.318-5.379,2.731-11.204,4.107-16.919
				c0.377-1.561,0.754-3.114,1.123-4.646c0.087-0.354,0.174-0.709,0.257-1.063c5.549-22.982-6.867-46.776-29.147-54.696
				c-9.018-3.204-18.608-3.481-27.313,2.625c-27.271,19.114-26.631-15.017-49.012-21.813c-25.778-7.837-37.933,14.972-56.431,7.129
				C206.112,611.313,171.221,624.778,188.953,649.911z"/>
			<g>
				<path fill="#004FC3" d="M229.144,649.806l163.223,44.879c0.377-1.561,0.754-3.114,1.123-4.646l-163.078-44.84
					c-1.272-0.35-2.588,0.396-2.938,1.668C227.125,648.14,227.872,649.456,229.144,649.806z"/>
			</g>
		</g>
		<g>
			<g>
				<path fill="#004FC3" d="M618.335,235.428c5.006-45.249,12.035-83.562,20.929-114.053c11.625-39.835,26.523-66.345,44.286-78.794
					c1.177-0.823,2.797-0.54,3.627,0.639c0.824,1.177,0.538,2.8-0.639,3.626c-31.049,21.761-53.242,91.15-64.257,200.8
					L618.335,235.428z"/>
			</g>
			<path fill="#0172CE" d="M652.587,86.728c0,0-21.417-3.871-13.142-41.257C639.446,45.471,670.549,60.693,652.587,86.728z"/>
			<path fill="#0172CE" d="M647.32,105.781c0,0,2.673-21.597,40.461-15.413C687.781,90.368,674.316,122.267,647.32,105.781z"/>
			<path fill="#0172CE" d="M673.164,55.889c0,0-4.679-21.253,33.009-28.021C706.173,27.868,704.109,62.433,673.164,55.889z"/>
			<path fill="#0172CE" d="M635.546,143.786c0,0-21.459,3.602-26.316-34.38C609.23,109.406,643.644,113.21,635.546,143.786z"/>
			<path fill="#0172CE" d="M633.122,164.009c0,0-1.098-21.735,37.187-22.179C670.309,141.83,662.563,175.578,633.122,164.009z"/>
			<path fill="#0172CE" d="M627.054,191.368c0,0-21.393,4.008-26.967-33.876C600.087,157.492,634.568,160.644,627.054,191.368z"/>
		</g>
	</g>
	<g>
		<g>
			<path fill="#233B78" d="M702.219,231.085v552.584c0,17.323-14.037,31.359-31.359,31.359H395.683
				c-8.703,0-16.571-3.541-22.255-9.26c-5.626-5.674-9.105-13.479-9.105-22.1V231.085c0-17.321,14.039-31.357,31.36-31.357H670.86
				c5.118,0,9.955,1.224,14.223,3.404C695.257,208.315,702.219,218.884,702.219,231.085z"/>
			<path fill="#29245D" d="M702.219,231.085v552.584c0,17.323-14.037,31.359-31.359,31.359H395.683
				c-8.703,0-16.571-3.541-22.255-9.26l311.655-602.637C695.257,208.315,702.219,218.884,702.219,231.085z"/>
		</g>
		<g>
			<path fill="#29245D" d="M364.323,355.725h-2.499c-4.955,0-8.973-4.019-8.973-8.973v-55.057c0-4.957,4.018-8.973,8.973-8.973
				h2.499V355.725z"/>
			<path fill="#29245D" d="M702.219,353.03h2.043c4.054,0,7.344-3.286,7.344-7.341v-44.761c0-4.056-3.29-7.344-7.344-7.344h-2.043
				V353.03z"/>
			<path fill="#29245D" d="M364.323,438.633h-2.499c-4.955,0-8.973-4.018-8.973-8.972v-55.058c0-4.954,4.018-8.972,8.973-8.972
				h2.499V438.633z"/>
		</g>
		<g>
			<path fill="#FFFFFF" d="M686.579,229.722v555.313c0,7.924-6.432,14.352-14.352,14.352H394.319c-5.91,0-10.98-3.57-13.179-8.67
				c-0.758-1.742-1.173-3.661-1.173-5.682V229.722c0-7.929,6.424-14.353,14.352-14.353h277.908c2.093,0,4.083,0.448,5.873,1.258
				C683.098,218.871,686.579,223.891,686.579,229.722z"/>
		</g>
		<g>
			<path fill="#233B78" d="M626.221,214.864l-12.781,19.451c-3.568,5.425-9.623,8.692-16.117,8.692H473.786
				c-6.494,0-12.551-3.268-16.117-8.692l-12.783-19.451c0-2.015,1.649-3.668,3.669-3.668h173.999
				C624.568,211.196,626.221,212.85,626.221,214.864z"/>
			<path fill="#29245D" d="M579.536,228.926H471.979c-1.683,0-3.059-1.376-3.059-3.059v-1.703c0-1.683,1.376-3.059,3.059-3.059
				h107.557c1.683,0,3.059,1.376,3.059,3.059v1.703C582.594,227.55,581.218,228.926,579.536,228.926z"/>
			<circle fill="#233B78" cx="598.651" cy="224.756" r="4.693"/>
		</g>
		<g>
			<g>
				<g>
					<path fill="#D1E6EC" d="M491.035,485.065c0,10.349-3.674,19.835-9.791,27.23c-1.428,1.729-2.986,3.341-4.665,4.822
						c-7.539,6.666-17.452,10.713-28.31,10.713c-10.858,0-20.767-4.045-28.31-10.713c-1.679-1.481-3.235-3.094-4.663-4.818
						c-6.117-7.397-9.793-16.886-9.793-27.234c0-23.618,19.146-42.763,42.765-42.763
						C471.888,442.303,491.035,461.447,491.035,485.065z"/>
				</g>
				<circle fill="#FFFFFF" cx="448.271" cy="474.579" r="16.4"/>
				<path fill="#FFFFFF" d="M476.579,517.118c-7.539,6.666-17.452,10.713-28.31,10.713c-10.858,0-20.767-4.045-28.31-10.713
					c1.69-6.956,5.866-11.697,10.505-14.916c10.676-7.403,24.937-7.403,35.608,0C470.715,505.421,474.888,510.162,476.579,517.118z"
					/>
			</g>
			<g>
				<g>
					<g>
						<path fill="#D1E6EC" d="M508.867,476.12c0.031-0.113,0.05-0.192,0.075-0.27c0.846-2.627,1.691-5.257,2.544-7.882
							c0.063-0.195,0.023-0.286-0.134-0.402c-2.53-1.873-5.054-3.755-7.578-5.634c-0.064-0.048-0.124-0.098-0.178-0.197
							c0.187,0,0.369,0.004,0.553,0c3.05-0.031,6.101-0.066,9.151-0.091c0.176-0.002,0.24-0.063,0.292-0.224
							c0.906-2.831,1.819-5.657,2.731-8.488c0.017-0.056,0.038-0.111,0.071-0.211c0.043,0.104,0.074,0.17,0.102,0.242
							c1.059,2.889,2.116,5.777,3.168,8.668c0.071,0.197,0.16,0.257,0.367,0.257c2.841-0.024,5.68-0.037,8.521-0.054
							c0.112,0,0.224,0,0.358,0.037c-0.06,0.046-0.12,0.09-0.182,0.133c-2.462,1.67-4.921,3.34-7.388,5.004
							c-0.167,0.114-0.199,0.203-0.13,0.396c1.003,2.884,1.996,5.771,2.992,8.659c0.023,0.068,0.042,0.139,0.075,0.266
							c-0.141-0.096-0.236-0.16-0.332-0.229c-2.42-1.716-4.843-3.429-7.261-5.149c-0.141-0.102-0.228-0.102-0.367-0.004
							c-2.397,1.672-4.797,3.338-7.197,5.004C509.047,476.002,508.973,476.05,508.867,476.12z"/>
					</g>
				</g>
				<g>
					<g>
						<path fill="#D1E6EC" d="M541.354,476.12c0.033-0.113,0.05-0.192,0.075-0.27c0.845-2.627,1.691-5.257,2.544-7.882
							c0.062-0.195,0.021-0.286-0.137-0.402c-2.528-1.873-5.052-3.755-7.576-5.634c-0.064-0.048-0.125-0.098-0.178-0.197
							c0.187,0,0.369,0.004,0.553,0c3.052-0.031,6.103-0.066,9.153-0.091c0.174-0.002,0.236-0.063,0.29-0.224
							c0.908-2.831,1.819-5.657,2.731-8.488c0.017-0.056,0.037-0.111,0.07-0.211c0.046,0.104,0.075,0.17,0.104,0.242
							c1.057,2.889,2.114,5.777,3.167,8.668c0.07,0.197,0.162,0.257,0.369,0.257c2.839-0.024,5.678-0.037,8.517-0.054
							c0.116,0,0.228,0,0.361,0.037c-0.058,0.046-0.121,0.09-0.183,0.133c-2.461,1.67-4.919,3.34-7.385,5.004
							c-0.17,0.114-0.199,0.203-0.132,0.396c1.003,2.884,1.998,5.771,2.992,8.659c0.025,0.068,0.042,0.139,0.075,0.266
							c-0.141-0.096-0.236-0.16-0.332-0.229c-2.42-1.716-4.841-3.429-7.261-5.149c-0.141-0.102-0.228-0.102-0.364-0.004
							c-2.4,1.672-4.799,3.338-7.199,5.004C541.533,476.002,541.462,476.05,541.354,476.12z"/>
					</g>
				</g>
				<g>
					<g>
						<path fill="#D1E6EC" d="M573.842,476.12c0.033-0.113,0.049-0.192,0.074-0.27c0.846-2.627,1.691-5.257,2.545-7.882
							c0.062-0.195,0.025-0.286-0.137-0.402c-2.528-1.873-5.052-3.755-7.576-5.634c-0.063-0.048-0.125-0.098-0.178-0.197
							c0.186,0,0.369,0.004,0.551,0c3.055-0.031,6.105-0.066,9.155-0.091c0.174-0.002,0.241-0.063,0.29-0.224
							c0.908-2.831,1.819-5.657,2.731-8.488c0.017-0.056,0.037-0.111,0.07-0.211c0.045,0.104,0.075,0.17,0.104,0.242
							c1.057,2.889,2.114,5.777,3.167,8.668c0.07,0.197,0.162,0.257,0.369,0.257c2.839-0.024,5.678-0.037,8.521-0.054
							c0.112,0,0.224,0,0.356,0.037c-0.058,0.046-0.12,0.09-0.182,0.133c-2.462,1.67-4.919,3.34-7.385,5.004
							c-0.17,0.114-0.199,0.203-0.133,0.396c1.003,2.884,1.998,5.771,2.992,8.659c0.025,0.068,0.042,0.139,0.075,0.266
							c-0.141-0.096-0.236-0.16-0.332-0.229c-2.42-1.716-4.84-3.429-7.261-5.149c-0.141-0.102-0.228-0.102-0.365-0.004
							c-2.399,1.672-4.799,3.338-7.199,5.004C574.024,476.002,573.949,476.05,573.842,476.12z"/>
					</g>
				</g>
				<g>
					<g>
						<path fill="#D1E6EC" d="M606.329,476.12c0.033-0.113,0.05-0.192,0.075-0.27c0.846-2.627,1.691-5.257,2.544-7.882
							c0.063-0.195,0.025-0.286-0.132-0.402c-2.532-1.873-5.056-3.755-7.58-5.634c-0.062-0.048-0.124-0.098-0.178-0.197
							c0.187,0,0.369,0.004,0.556,0c3.05-0.031,6.1-0.066,9.15-0.091c0.174-0.002,0.24-0.063,0.29-0.224
							c0.908-2.831,1.819-5.657,2.731-8.488c0.021-0.056,0.038-0.111,0.071-0.211c0.045,0.104,0.074,0.17,0.104,0.242
							c1.057,2.889,2.113,5.777,3.166,8.668c0.071,0.197,0.162,0.257,0.369,0.257c2.839-0.024,5.678-0.037,8.521-0.054
							c0.112,0,0.224,0,0.356,0.037c-0.058,0.046-0.12,0.09-0.182,0.133c-2.462,1.67-4.919,3.34-7.385,5.004
							c-0.17,0.114-0.199,0.203-0.133,0.396c1.003,2.884,1.998,5.771,2.992,8.659c0.025,0.068,0.042,0.139,0.075,0.266
							c-0.141-0.096-0.236-0.16-0.332-0.229c-2.42-1.716-4.841-3.429-7.261-5.149c-0.141-0.102-0.228-0.102-0.365-0.004
							c-2.399,1.672-4.799,3.338-7.199,5.004C606.511,476.002,606.437,476.05,606.329,476.12z"/>
					</g>
				</g>
				<g>
					<path fill="#D1E6EC" d="M638.816,476.12c0.033-0.113,0.05-0.192,0.075-0.27c0.845-2.627,1.691-5.257,2.544-7.882
						c0.062-0.195,0.025-0.286-0.132-0.402c-2.532-1.873-5.056-3.755-7.58-5.634c-0.062-0.048-0.125-0.098-0.174-0.197
						c0.183,0,0.365,0.004,0.551,0c3.05-0.031,6.101-0.066,9.151-0.091c0.174-0.002,0.24-0.063,0.29-0.224
						c0.908-2.831,1.819-5.657,2.731-8.488c0.021-0.056,0.037-0.111,0.075-0.211c0.042,0.104,0.07,0.17,0.1,0.242
						c1.057,2.889,2.113,5.777,3.166,8.668c0.07,0.197,0.162,0.257,0.369,0.257c2.839-0.024,5.678-0.037,8.521-0.054
						c0.112,0,0.224,0,0.356,0.037c-0.058,0.046-0.12,0.09-0.183,0.133c-2.461,1.67-4.919,3.34-7.385,5.004
						c-0.169,0.114-0.199,0.203-0.132,0.396c1.003,2.884,1.998,5.771,2.992,8.659c0.025,0.068,0.042,0.139,0.075,0.266
						c-0.137-0.096-0.236-0.16-0.332-0.229c-2.42-1.716-4.841-3.429-7.257-5.149c-0.145-0.102-0.232-0.102-0.369-0.004
						c-2.4,1.672-4.799,3.338-7.199,5.004C638.999,476.002,638.924,476.05,638.816,476.12z"/>
				</g>
			</g>
			<g>
				<path fill="#D1E6EC" d="M655.314,486.864H507.006c-1.881,0-3.411,1.527-3.411,3.411l0,0c0,1.884,1.529,3.41,3.411,3.41h148.308
					c1.881,0,3.411-1.526,3.411-3.41l0,0C658.725,488.392,657.196,486.864,655.314,486.864z"/>
				<path fill="#D1E6EC" d="M655.314,501.483H507.006c-1.881,0-3.411,1.525-3.411,3.411l0,0c0,1.884,1.529,3.41,3.411,3.41h148.308
					c1.881,0,3.411-1.526,3.411-3.41l0,0C658.725,503.009,657.196,501.483,655.314,501.483z"/>
			</g>
		</g>
		<g>
			<g>
				<g>
					<path fill="#D1E6EC" d="M491.035,600.555c0,10.349-3.674,19.835-9.791,27.232c-1.428,1.727-2.986,3.338-4.665,4.82
						c-7.539,6.666-17.452,10.713-28.31,10.713c-10.858,0-20.767-4.045-28.31-10.713c-1.679-1.482-3.235-3.094-4.663-4.818
						c-6.117-7.397-9.793-16.886-9.793-27.234c0-23.618,19.146-42.763,42.765-42.763
						C471.888,557.792,491.035,576.937,491.035,600.555z"/>
				</g>
				<circle fill="#FFFFFF" cx="448.271" cy="590.067" r="16.4"/>
				<path fill="#FFFFFF" d="M476.579,632.607c-7.539,6.666-17.452,10.713-28.31,10.713c-10.858,0-20.767-4.045-28.31-10.713
					c1.69-6.957,5.866-11.697,10.505-14.916c10.676-7.401,24.937-7.401,35.608,0C470.715,620.91,474.888,625.65,476.579,632.607z"/>
			</g>
			<g>
				<g>
					<g>
						<path fill="#D1E6EC" d="M508.867,591.609c0.031-0.111,0.05-0.192,0.075-0.27c0.846-2.627,1.691-5.257,2.544-7.882
							c0.063-0.193,0.023-0.286-0.134-0.402c-2.53-1.873-5.054-3.755-7.578-5.634c-0.064-0.046-0.124-0.098-0.178-0.195
							c0.187,0,0.369,0.002,0.553,0c3.05-0.033,6.101-0.066,9.151-0.093c0.176-0.002,0.24-0.061,0.292-0.224
							c0.906-2.831,1.819-5.657,2.731-8.486c0.017-0.056,0.038-0.113,0.071-0.213c0.043,0.104,0.074,0.172,0.102,0.242
							c1.059,2.889,2.116,5.777,3.168,8.67c0.071,0.195,0.16,0.255,0.367,0.253c2.841-0.022,5.68-0.035,8.521-0.052
							c0.112,0,0.224,0,0.358,0.039c-0.06,0.044-0.12,0.087-0.182,0.131c-2.462,1.67-4.921,3.34-7.388,5.004
							c-0.167,0.114-0.199,0.205-0.13,0.396c1.003,2.884,1.996,5.772,2.992,8.659c0.023,0.068,0.042,0.141,0.075,0.266
							c-0.141-0.096-0.236-0.16-0.332-0.229c-2.42-1.714-4.843-3.43-7.261-5.149c-0.141-0.102-0.228-0.102-0.367-0.004
							c-2.397,1.672-4.797,3.338-7.197,5.004C509.047,591.493,508.973,591.541,508.867,591.609z"/>
					</g>
				</g>
				<g>
					<g>
						<path fill="#D1E6EC" d="M541.354,591.609c0.033-0.111,0.05-0.192,0.075-0.27c0.845-2.627,1.691-5.257,2.544-7.882
							c0.062-0.193,0.021-0.286-0.137-0.402c-2.528-1.873-5.052-3.755-7.576-5.634c-0.064-0.046-0.125-0.098-0.178-0.195
							c0.187,0,0.369,0.002,0.553,0c3.052-0.033,6.103-0.066,9.153-0.093c0.174-0.002,0.236-0.061,0.29-0.224
							c0.908-2.831,1.819-5.657,2.731-8.486c0.017-0.056,0.037-0.113,0.07-0.213c0.046,0.104,0.075,0.172,0.104,0.242
							c1.057,2.889,2.114,5.777,3.167,8.67c0.07,0.195,0.162,0.255,0.369,0.253c2.839-0.022,5.678-0.035,8.517-0.052
							c0.116,0,0.228,0,0.361,0.039c-0.058,0.044-0.121,0.087-0.183,0.131c-2.461,1.67-4.919,3.34-7.385,5.004
							c-0.17,0.114-0.199,0.205-0.132,0.396c1.003,2.884,1.998,5.772,2.992,8.659c0.025,0.068,0.042,0.141,0.075,0.266
							c-0.141-0.096-0.236-0.16-0.332-0.229c-2.42-1.714-4.841-3.43-7.261-5.149c-0.141-0.102-0.228-0.102-0.364-0.004
							c-2.4,1.672-4.799,3.338-7.199,5.004C541.533,591.493,541.462,591.541,541.354,591.609z"/>
					</g>
				</g>
				<g>
					<g>
						<path fill="#D1E6EC" d="M573.842,591.609c0.033-0.111,0.049-0.192,0.074-0.27c0.846-2.627,1.691-5.257,2.545-7.882
							c0.062-0.193,0.025-0.286-0.137-0.402c-2.528-1.873-5.052-3.755-7.576-5.634c-0.063-0.046-0.125-0.098-0.178-0.195
							c0.186,0,0.369,0.002,0.551,0c3.055-0.033,6.105-0.066,9.155-0.093c0.174-0.002,0.241-0.061,0.29-0.224
							c0.908-2.831,1.819-5.657,2.731-8.486c0.017-0.056,0.037-0.113,0.07-0.213c0.045,0.104,0.075,0.172,0.104,0.242
							c1.057,2.889,2.114,5.777,3.167,8.67c0.07,0.195,0.162,0.255,0.369,0.253c2.839-0.022,5.678-0.035,8.521-0.052
							c0.112,0,0.224,0,0.356,0.039c-0.058,0.044-0.12,0.087-0.182,0.131c-2.462,1.67-4.919,3.34-7.385,5.004
							c-0.17,0.114-0.199,0.205-0.133,0.396c1.003,2.884,1.998,5.772,2.992,8.659c0.025,0.068,0.042,0.141,0.075,0.266
							c-0.141-0.096-0.236-0.16-0.332-0.229c-2.42-1.714-4.84-3.43-7.261-5.149c-0.141-0.102-0.228-0.102-0.365-0.004
							c-2.399,1.672-4.799,3.338-7.199,5.004C574.024,591.493,573.949,591.541,573.842,591.609z"/>
					</g>
				</g>
			</g>
			<g>
				<path fill="#D1E6EC" d="M655.314,602.354H507.006c-1.881,0-3.411,1.527-3.411,3.411l0,0c0,1.883,1.529,3.41,3.411,3.41h148.308
					c1.881,0,3.411-1.527,3.411-3.41l0,0C658.725,603.881,657.196,602.354,655.314,602.354z"/>
				<path fill="#D1E6EC" d="M655.314,616.973H507.006c-1.881,0-3.411,1.527-3.411,3.411l0,0c0,1.883,1.529,3.41,3.411,3.41h148.308
					c1.881,0,3.411-1.527,3.411-3.41l0,0C658.725,618.5,657.196,616.973,655.314,616.973z"/>
			</g>
		</g>
		<g>
			<g>
				<g>
					<path fill="#D1E6EC" d="M491.035,718.905c0,10.349-3.674,19.835-9.791,27.23c-1.428,1.727-2.986,3.338-4.665,4.82
						c-7.539,6.666-17.452,10.713-28.31,10.713c-10.858,0-20.767-4.045-28.31-10.713c-1.679-1.482-3.235-3.094-4.663-4.818
						c-6.117-7.396-9.793-16.884-9.793-27.232c0-23.618,19.146-42.765,42.765-42.765
						C471.888,676.141,491.035,695.287,491.035,718.905z"/>
				</g>
				<circle fill="#FFFFFF" cx="448.271" cy="708.419" r="16.4"/>
				<path fill="#FFFFFF" d="M476.579,750.956c-7.539,6.666-17.452,10.713-28.31,10.713c-10.858,0-20.767-4.045-28.31-10.713
					c1.69-6.954,5.866-11.697,10.505-14.914c10.676-7.403,24.937-7.403,35.608,0C470.715,739.259,474.888,744.002,476.579,750.956z"
					/>
			</g>
			<g>
				<g>
					<g>
						<path fill="#D1E6EC" d="M508.867,709.958c0.031-0.111,0.05-0.19,0.075-0.268c0.846-2.629,1.691-5.259,2.544-7.884
							c0.063-0.193,0.023-0.284-0.134-0.4c-2.53-1.875-5.054-3.755-7.578-5.634c-0.064-0.048-0.124-0.1-0.178-0.197
							c0.187,0,0.369,0.002,0.553,0c3.05-0.031,6.101-0.066,9.151-0.093c0.176,0,0.24-0.061,0.292-0.222
							c0.906-2.831,1.819-5.659,2.731-8.488c0.017-0.056,0.038-0.111,0.071-0.211c0.043,0.102,0.074,0.17,0.102,0.24
							c1.059,2.891,2.116,5.779,3.168,8.67c0.071,0.197,0.16,0.257,0.367,0.255c2.841-0.022,5.68-0.037,8.521-0.052
							c0.112,0,0.224,0,0.358,0.037c-0.06,0.044-0.12,0.09-0.182,0.131c-2.462,1.67-4.921,3.343-7.388,5.004
							c-0.167,0.114-0.199,0.205-0.13,0.396c1.003,2.884,1.996,5.772,2.992,8.659c0.023,0.07,0.042,0.141,0.075,0.266
							c-0.141-0.096-0.236-0.16-0.332-0.227c-2.42-1.716-4.843-3.429-7.261-5.151c-0.141-0.102-0.228-0.1-0.367-0.004
							c-2.397,1.672-4.797,3.338-7.197,5.006C509.047,709.842,508.973,709.89,508.867,709.958z"/>
					</g>
				</g>
				<g>
					<g>
						<path fill="#D1E6EC" d="M541.354,709.958c0.033-0.111,0.05-0.19,0.075-0.268c0.845-2.629,1.691-5.259,2.544-7.884
							c0.062-0.193,0.021-0.284-0.137-0.4c-2.528-1.875-5.052-3.755-7.576-5.634c-0.064-0.048-0.125-0.1-0.178-0.197
							c0.187,0,0.369,0.002,0.553,0c3.052-0.031,6.103-0.066,9.153-0.093c0.174,0,0.236-0.061,0.29-0.222
							c0.908-2.831,1.819-5.659,2.731-8.488c0.017-0.056,0.037-0.111,0.07-0.211c0.046,0.102,0.075,0.17,0.104,0.24
							c1.057,2.891,2.114,5.779,3.167,8.67c0.07,0.197,0.162,0.257,0.369,0.255c2.839-0.022,5.678-0.037,8.517-0.052
							c0.116,0,0.228,0,0.361,0.037c-0.058,0.044-0.121,0.09-0.183,0.131c-2.461,1.67-4.919,3.343-7.385,5.004
							c-0.17,0.114-0.199,0.205-0.132,0.396c1.003,2.884,1.998,5.772,2.992,8.659c0.025,0.07,0.042,0.141,0.075,0.266
							c-0.141-0.096-0.236-0.16-0.332-0.227c-2.42-1.716-4.841-3.429-7.261-5.151c-0.141-0.102-0.228-0.1-0.364-0.004
							c-2.4,1.672-4.799,3.338-7.199,5.006C541.533,709.842,541.462,709.89,541.354,709.958z"/>
					</g>
				</g>
				<g>
					<g>
						<path fill="#D1E6EC" d="M573.842,709.958c0.033-0.111,0.049-0.19,0.074-0.268c0.846-2.629,1.691-5.259,2.545-7.884
							c0.062-0.193,0.025-0.284-0.137-0.4c-2.528-1.875-5.052-3.755-7.576-5.634c-0.063-0.048-0.125-0.1-0.178-0.197
							c0.186,0,0.369,0.002,0.551,0c3.055-0.031,6.105-0.066,9.155-0.093c0.174,0,0.241-0.061,0.29-0.222
							c0.908-2.831,1.819-5.659,2.731-8.488c0.017-0.056,0.037-0.111,0.07-0.211c0.045,0.102,0.075,0.17,0.104,0.24
							c1.057,2.891,2.114,5.779,3.167,8.67c0.07,0.197,0.162,0.257,0.369,0.255c2.839-0.022,5.678-0.037,8.521-0.052
							c0.112,0,0.224,0,0.356,0.037c-0.058,0.044-0.12,0.09-0.182,0.131c-2.462,1.67-4.919,3.343-7.385,5.004
							c-0.17,0.114-0.199,0.205-0.133,0.396c1.003,2.884,1.998,5.772,2.992,8.659c0.025,0.07,0.042,0.141,0.075,0.266
							c-0.141-0.096-0.236-0.16-0.332-0.227c-2.42-1.716-4.84-3.429-7.261-5.151c-0.141-0.102-0.228-0.1-0.365-0.004
							c-2.399,1.672-4.799,3.338-7.199,5.006C574.024,709.842,573.949,709.89,573.842,709.958z"/>
					</g>
				</g>
				<g>
					<g>
						<path fill="#D1E6EC" d="M606.329,709.958c0.033-0.111,0.05-0.19,0.075-0.268c0.846-2.629,1.691-5.259,2.544-7.884
							c0.063-0.193,0.025-0.284-0.132-0.4c-2.532-1.875-5.056-3.755-7.58-5.634c-0.062-0.048-0.124-0.1-0.178-0.197
							c0.187,0,0.369,0.002,0.556,0c3.05-0.031,6.1-0.066,9.15-0.093c0.174,0,0.24-0.061,0.29-0.222
							c0.908-2.831,1.819-5.659,2.731-8.488c0.021-0.056,0.038-0.111,0.071-0.211c0.045,0.102,0.074,0.17,0.104,0.24
							c1.057,2.891,2.113,5.779,3.166,8.67c0.071,0.197,0.162,0.257,0.369,0.255c2.839-0.022,5.678-0.037,8.521-0.052
							c0.112,0,0.224,0,0.356,0.037c-0.058,0.044-0.12,0.09-0.182,0.131c-2.462,1.67-4.919,3.343-7.385,5.004
							c-0.17,0.114-0.199,0.205-0.133,0.396c1.003,2.884,1.998,5.772,2.992,8.659c0.025,0.07,0.042,0.141,0.075,0.266
							c-0.141-0.096-0.236-0.16-0.332-0.227c-2.42-1.716-4.841-3.429-7.261-5.151c-0.141-0.102-0.228-0.1-0.365-0.004
							c-2.399,1.672-4.799,3.338-7.199,5.006C606.511,709.842,606.437,709.89,606.329,709.958z"/>
					</g>
				</g>
			</g>
			<g>
				<path fill="#D1E6EC" d="M655.314,720.702H507.006c-1.881,0-3.411,1.527-3.411,3.411l0,0c0,1.884,1.529,3.41,3.411,3.41h148.308
					c1.881,0,3.411-1.526,3.411-3.41l0,0C658.725,722.229,657.196,720.702,655.314,720.702z"/>
				<path fill="#D1E6EC" d="M655.314,735.321H507.006c-1.881,0-3.411,1.527-3.411,3.411l0,0c0,1.883,1.529,3.41,3.411,3.41h148.308
					c1.881,0,3.411-1.527,3.411-3.41l0,0C658.725,736.849,657.196,735.321,655.314,735.321z"/>
			</g>
		</g>
		<g>
			<path fill="#D1E6EC" d="M476.057,301.095h-64.378c-3.102,0-5.615,2.516-5.615,5.615l0,0c0,3.1,2.514,5.615,5.615,5.615h64.378
				c3.1,0,5.615-2.516,5.615-5.615l0,0C481.672,303.61,479.157,301.095,476.057,301.095z"/>
			<path fill="#D1E6EC" d="M476.057,325.16h-64.191c-3.091,0-5.744,2.416-5.802,5.508c-0.058,3.149,2.478,5.719,5.615,5.719h64.378
				c3.1,0,5.615-2.513,5.615-5.613l0,0C481.672,327.672,479.157,325.16,476.057,325.16z"/>
			<path fill="#D1E6EC" d="M476.057,351.8h-64.378c-3.102,0-5.615,2.516-5.615,5.615l0,0c0,3.101,2.514,5.616,5.615,5.616h64.378
				c3.1,0,5.615-2.516,5.615-5.616l0,0C481.672,354.315,479.157,351.8,476.057,351.8z"/>
			<path fill="#D1E6EC" d="M476.057,375.865h-64.191c-3.091,0-5.744,2.417-5.802,5.508c-0.058,3.15,2.478,5.72,5.615,5.72h64.378
				c3.1,0,5.615-2.512,5.615-5.613l0,0C481.672,378.377,479.157,375.865,476.057,375.865z"/>
		</g>
	</g>
	<g>
		<g>
			<path fill="#FD4059" d="M779.208,311.923H507.319c-2.978,0-5.39-2.414-5.39-5.392v-47.646c0-2.976,2.412-5.392,5.39-5.392
				h271.889c2.976,0,5.388,2.416,5.388,5.392v47.646C784.596,309.509,782.184,311.923,779.208,311.923z"/>
			<path opacity="0.3" fill="#FFFFFF" d="M765.138,298.11h-22.607c-2.913,0-5.275-2.362-5.275-5.273v-22.607
				c0-2.911,2.362-5.273,5.275-5.273h22.607c2.913,0,5.271,2.362,5.271,5.273v22.607C770.41,295.748,768.051,298.11,765.138,298.11z
				"/>
			<g>
				<path opacity="0.3" fill="#FFFFFF" d="M710.032,271.229H522.593c-1.355,0-2.454-1.099-2.454-2.453v-1.366
					c0-1.354,1.099-2.453,2.454-2.453h187.438c1.354,0,2.453,1.099,2.453,2.453v1.366
					C712.485,270.13,711.386,271.229,710.032,271.229z"/>
				<path opacity="0.3" fill="#FFFFFF" d="M710.032,284.671H522.593c-1.355,0-2.454-1.099-2.454-2.454v-1.367
					c0-1.355,1.099-2.454,2.454-2.454h187.438c1.354,0,2.453,1.099,2.453,2.454v1.367
					C712.485,283.572,711.386,284.671,710.032,284.671z"/>
				<path opacity="0.3" fill="#FFFFFF" d="M710.032,298.11H522.593c-1.355,0-2.454-1.099-2.454-2.453v-1.368
					c0-1.353,1.099-2.451,2.454-2.451h187.438c1.354,0,2.453,1.099,2.453,2.451v1.368
					C712.485,297.012,711.386,298.11,710.032,298.11z"/>
			</g>
		</g>
		<g>
			<path fill="#0172CE" d="M776.287,394.847H513.07c-5.371,0-9.725-4.355-9.725-9.727v-38.978c0-5.371,4.354-9.727,9.725-9.727
				h263.217c5.371,0,9.727,4.355,9.727,9.727v38.978C786.013,390.491,781.658,394.847,776.287,394.847z"/>
			<g>
				<g>
					<path fill="#FFFFFF" d="M526.825,378.905c0.037-0.146,0.06-0.25,0.091-0.35c1.101-3.413,2.197-6.826,3.308-10.236
						c0.083-0.253,0.029-0.369-0.174-0.522c-3.287-2.433-6.564-4.874-9.843-7.314c-0.083-0.063-0.162-0.129-0.228-0.257
						c0.238,0,0.477,0.004,0.717,0c3.959-0.042,7.919-0.085,11.881-0.121c0.228,0,0.311-0.078,0.381-0.29
						c1.175-3.674,2.362-7.346,3.545-11.02c0.023-0.074,0.05-0.145,0.093-0.275c0.054,0.133,0.095,0.222,0.128,0.313
						c1.376,3.753,2.752,7.506,4.116,11.261c0.091,0.253,0.207,0.331,0.477,0.329c3.688-0.031,7.376-0.048,11.065-0.068
						c0.145,0,0.29,0,0.468,0.05c-0.079,0.058-0.157,0.116-0.24,0.17c-3.195,2.168-6.391,4.339-9.59,6.5
						c-0.22,0.147-0.261,0.264-0.174,0.512c1.302,3.747,2.595,7.497,3.888,11.248c0.029,0.089,0.054,0.183,0.1,0.344
						c-0.183-0.124-0.311-0.207-0.431-0.294c-3.146-2.229-6.291-4.455-9.428-6.688c-0.185-0.133-0.298-0.133-0.479-0.005
						c-3.112,2.17-6.231,4.333-9.347,6.498C527.057,378.754,526.957,378.816,526.825,378.905z"/>
				</g>
				<g>
					<g>
						<path fill="#FFFFFF" d="M569.014,378.905c0.037-0.146,0.058-0.25,0.091-0.35c1.099-3.413,2.197-6.826,3.307-10.236
							c0.083-0.253,0.029-0.369-0.174-0.522c-3.287-2.433-6.564-4.874-9.843-7.314c-0.083-0.063-0.162-0.129-0.228-0.257
							c0.236,0,0.477,0.004,0.717,0c3.962-0.042,7.919-0.085,11.881-0.121c0.228,0,0.311-0.078,0.381-0.29
							c1.177-3.674,2.362-7.346,3.543-11.02c0.025-0.074,0.05-0.145,0.095-0.275c0.054,0.133,0.096,0.222,0.128,0.313
							c1.376,3.753,2.752,7.506,4.116,11.261c0.091,0.253,0.207,0.331,0.477,0.329c3.688-0.031,7.376-0.048,11.065-0.068
							c0.145,0,0.29,0,0.468,0.05c-0.079,0.058-0.157,0.116-0.24,0.17c-3.195,2.168-6.391,4.339-9.59,6.5
							c-0.22,0.147-0.261,0.264-0.174,0.512c1.302,3.747,2.595,7.497,3.888,11.248c0.029,0.089,0.054,0.183,0.099,0.344
							c-0.182-0.124-0.311-0.207-0.431-0.294c-3.146-2.229-6.291-4.455-9.428-6.688c-0.187-0.133-0.298-0.133-0.477-0.005
							c-3.113,2.17-6.233,4.333-9.35,6.498C569.246,378.754,569.146,378.816,569.014,378.905z"/>
					</g>
				</g>
				<g>
					<path fill="#FFFFFF" d="M611.203,378.905c0.037-0.146,0.058-0.25,0.091-0.35c1.099-3.413,2.197-6.826,3.307-10.236
						c0.083-0.253,0.029-0.369-0.174-0.522c-3.287-2.433-6.564-4.874-9.843-7.314c-0.083-0.063-0.162-0.129-0.228-0.257
						c0.236,0,0.477,0.004,0.717,0c3.962-0.042,7.919-0.085,11.881-0.121c0.228,0,0.311-0.078,0.381-0.29
						c1.177-3.674,2.362-7.346,3.543-11.02c0.025-0.074,0.05-0.145,0.095-0.275c0.054,0.133,0.095,0.222,0.128,0.313
						c1.376,3.753,2.752,7.506,4.115,11.261c0.091,0.253,0.208,0.331,0.477,0.329c3.688-0.031,7.376-0.048,11.065-0.068
						c0.145,0,0.29,0,0.468,0.05c-0.079,0.058-0.157,0.116-0.24,0.17c-3.195,2.168-6.391,4.339-9.59,6.5
						c-0.22,0.147-0.261,0.264-0.174,0.512c1.302,3.747,2.595,7.497,3.888,11.248c0.029,0.089,0.054,0.183,0.099,0.344
						c-0.182-0.124-0.311-0.207-0.431-0.294c-3.146-2.229-6.291-4.455-9.428-6.688c-0.187-0.133-0.299-0.133-0.477-0.005
						c-3.113,2.17-6.233,4.333-9.35,6.498C611.435,378.754,611.335,378.816,611.203,378.905z"/>
				</g>
				<g>
					<path fill="#FFFFFF" d="M653.392,378.905c0.037-0.146,0.062-0.25,0.091-0.35c1.103-3.413,2.197-6.826,3.307-10.236
						c0.083-0.253,0.029-0.369-0.174-0.522c-3.287-2.433-6.564-4.874-9.843-7.314c-0.083-0.063-0.162-0.129-0.228-0.257
						c0.236,0,0.477,0.004,0.717,0c3.962-0.042,7.919-0.085,11.881-0.121c0.228,0,0.311-0.078,0.381-0.29
						c1.177-3.674,2.362-7.346,3.543-11.02c0.025-0.074,0.05-0.145,0.095-0.275c0.054,0.133,0.095,0.222,0.128,0.313
						c1.376,3.753,2.752,7.506,4.115,11.261c0.091,0.253,0.208,0.331,0.477,0.329c3.688-0.031,7.376-0.048,11.065-0.068
						c0.145,0,0.29,0,0.468,0.05c-0.079,0.058-0.157,0.116-0.24,0.17c-3.195,2.168-6.391,4.339-9.59,6.5
						c-0.22,0.147-0.261,0.264-0.174,0.512c1.306,3.747,2.595,7.497,3.888,11.248c0.029,0.089,0.054,0.183,0.099,0.344
						c-0.182-0.124-0.307-0.207-0.431-0.294c-3.146-2.229-6.291-4.455-9.428-6.688c-0.183-0.133-0.298-0.133-0.477-0.005
						c-3.112,2.17-6.233,4.333-9.349,6.498C653.624,378.754,653.524,378.816,653.392,378.905z"/>
				</g>
				<g>
					<path fill="#0096E2" d="M695.581,378.905c0.037-0.146,0.058-0.25,0.091-0.35c1.099-3.413,2.196-6.826,3.308-10.236
						c0.083-0.253,0.028-0.369-0.175-0.522c-3.286-2.433-6.563-4.874-9.843-7.314c-0.082-0.063-0.161-0.129-0.228-0.257
						c0.236,0,0.477,0.004,0.718,0c3.961-0.042,7.919-0.085,11.881-0.121c0.229,0,0.311-0.078,0.382-0.29
						c1.177-3.674,2.361-7.346,3.543-11.02c0.024-0.074,0.05-0.145,0.096-0.275c0.054,0.133,0.095,0.222,0.128,0.313
						c1.376,3.753,2.752,7.506,4.115,11.261c0.092,0.253,0.207,0.331,0.477,0.329c3.688-0.031,7.377-0.048,11.065-0.068
						c0.146,0,0.29,0,0.469,0.05c-0.079,0.058-0.158,0.116-0.241,0.17c-3.194,2.168-6.39,4.339-9.59,6.5
						c-0.22,0.147-0.261,0.264-0.174,0.512c1.302,3.747,2.595,7.497,3.888,11.248c0.029,0.089,0.054,0.183,0.1,0.344
						c-0.183-0.124-0.307-0.207-0.432-0.294c-3.146-2.229-6.291-4.455-9.428-6.688c-0.183-0.133-0.299-0.133-0.477-0.005
						c-3.112,2.17-6.233,4.333-9.35,6.498C695.812,378.754,695.713,378.816,695.581,378.905z"/>
				</g>
			</g>
			<path fill="#0096E2" d="M765.138,382.184h-22.607c-2.913,0-5.275-2.36-5.275-5.273v-22.607c0-2.913,2.362-5.273,5.275-5.273
				h22.607c2.913,0,5.271,2.36,5.271,5.273v22.607C770.41,379.823,768.051,382.184,765.138,382.184z"/>
		</g>
	</g>
	<g>
		<ellipse opacity="0.1" fill="#D1E6EC" cx="266.314" cy="873.507" rx="109.293" ry="18.825"/>
		<g>
			<g>
				<path fill="#FDA893" d="M204.73,438.59c-0.705,7.882-1.461,15.45-2.139,21.793c-1.086,10.228-1.952,17.261-1.952,17.261
					l-7.584,26.836c-2.598,9.18-12.789,13.849-21.438,9.826c-0.149-0.062-0.315-0.113-0.447-0.203
					c-3.202-2.171-5.91-6.594-8.819-17.215c0,0,0,0,0-0.007c-0.128-0.924-10.678-40.539-11.625-54.972l18.475-2.887
					c0.692-1.786,5.924,18.602,6.693,16.646c0.487-1.262,0.995-2.563,1.509-3.881c0.86-2.187,1.749-4.449,2.656-6.757
					c1.285-3.276,2.613-6.654,3.956-10.057c9.882-25.129,20.413-51.721,20.413-51.721C208.48,385.207,206.935,413.487,204.73,438.59
					z"/>
				<path fill="#FF877C" d="M204.726,438.59c-0.698,7.885-1.457,15.452-2.13,21.795c-11.039-3.407-18.389-10.317-22.539-15.356
					c1.287-3.276,2.613-6.654,3.956-10.055L204.726,438.59z"/>
				<g>
					<path fill="#FF877C" d="M182.896,487.103c-0.064,0.009-0.118,0.009-0.182,0.009c-0.574,0-1.08-0.419-1.167-1.001
						c-2.097-13.952-4.235-24.261-5.655-30.444c0.489-1.262,1.001-2.563,1.515-3.881c1.333,5.45,3.935,17.06,6.482,33.969
						C183.983,486.402,183.542,487.001,182.896,487.103z"/>
				</g>
				<path fill="#0172CE" d="M172.011,434.196c0,0,2.449,2.905,6.726,6.097c5.178,3.883,14.704,8.653,24.114,8.736
					c7.288-28.768,7.967-64.537,4.677-73.789C203.192,380.59,181.281,410.247,172.011,434.196z"/>
				<g>
					<path fill="#29245D" d="M178.378,434.296l-0.286,0.195l-2.416,1.587l-0.653-1.02l-21.768,0.717
						c-1.838,0.066-3.434-1.264-3.707-3.083l-6.736-45.177c-0.035-0.229-0.05-0.454-0.04-0.665l-0.912-1.229l2.528-1.664l0.104-0.06
						l0.071-0.046c0.505-0.294,1.085-0.477,1.711-0.493l23.084-0.763c1.84-0.066,3.431,1.267,3.696,3.084l6.739,45.177
						C179.997,432.232,179.404,433.525,178.378,434.296z"/>
					<path fill="#233B78" d="M173.784,436.684l-23.075,0.763c-1.84,0.062-3.434-1.265-3.705-3.088l-6.739-45.179
						c-0.319-2.141,1.301-4.085,3.465-4.155l23.075-0.765c1.84-0.062,3.434,1.267,3.705,3.086l6.739,45.181
						C177.568,434.669,175.948,436.61,173.784,436.684z"/>
				</g>
				<path fill="#FDA893" d="M143.216,408.962c-2.122,0.373-0.159,3.4-1.303,7.881c-1.423,5.58,9.024,27.524,9.024,27.524
					c9.065,3.477,19.231-4.203,19.231-4.203s1.237-17.273-1.349-24.888c0,0-1.67-6.845-2.283-10.881
					c-0.609-4.015-2.686-8.533-3.915-7.634c-1.227,0.895-1.345,4.212-1.22,6.718c0.126,2.503-0.091,7.318-0.091,7.318
					s-1.044-5.868-1.347-9.121c-0.302-3.25-0.362-8.444-2.408-9.34c-2.574-1.127-2.866,5.854-3.036,8.389
					c-0.168,2.534,1.295,10.292,1.295,10.292s-2.236-8.666-1.962-11.293c0.275-2.624,0.505-7.729,0.247-9.872
					c-0.261-2.139-2.999-1.618-3.668,1.078c-0.671,2.697-1.301,8.07-1.421,9.867c-0.153,2.287,0.858,9.822,0.858,9.822
					s-1.604-8.552-1.672-10.834c-0.056-1.852,0.296-5.54-0.491-7.631c-0.79-2.091-3.369-2.344-3.846,3.305
					c-0.477,5.645-0.572,6.315-0.315,7.981c0.456,2.935,1.16,6.178,0.895,7.41c-0.132,0.618-0.825,0.668-0.825,0.668
					L143.216,408.962z"/>
			</g>
			<g>
				<polygon fill="#FDA893" points="225.621,835.597 225.621,852.532 241.113,852.284 242.124,834.335 				"/>
				<g>
					<g>
						<path fill="#FD4059" d="M264.953,588.116c-0.105,2.01-0.64,11.679-1.455,25.153c-2.182,37.027-6.268,102.824-8.664,117.604
							c-2.46,15.167-1.347,64.898-0.556,90.931c0.129,4.428-1.562,8.448-4.384,11.4c-1.049,1.091-2.267,2.031-3.593,2.802
							c-2.313,1.306-4.965,2.054-7.787,2.054h-11.807c-8.898,0-16.042-7.358-15.765-16.256c0.663-22.011,1.476-62.16-0.064-93.177
							c-1.478-29.518,0.663-81.754,2.311-114.31h0.021c0.663-13.005,1.241-22.844,1.476-26.865L264.953,588.116z"/>
					</g>
				</g>
				<path fill="#E51C4A" d="M214.685,587.453l50.268,0.663c-0.105,2.01-0.64,11.679-1.455,25.153
					c-17.068,2.097-34.845,2.974-50.289,1.049C213.872,601.313,214.45,591.475,214.685,587.453z"/>
				<g>
					<path fill="#E51C4A" d="M249.7,775.376c0.439,16.649,0.897,33.861,0.597,47.738c-0.083,3.894-0.22,7.224-0.398,10.081
						c-1.048,1.106-2.267,2.054-3.607,2.808c0.288-3.313,0.512-7.553,0.632-12.963c0.292-13.797-0.166-30.965-0.605-47.573
						c-0.539-20.294-1.048-39.468,0.058-47.63c2.412-17.86,7.804-114.682,9.221-140.527l3.382,0.151
						c-1.417,25.829-6.826,122.848-9.254,140.827C248.659,736.179,249.165,755.223,249.7,775.376z"/>
				</g>
				<g>
					<g>
						<g>
							<path fill="#0172CE" d="M229.591,851.9c0,0-3.208-4.513-5.835-4.381c-2.63,0.133-23.233,15.786-30.202,16.963
								c-6.967,1.177-5.731,6.316-4.517,8.954c1.214,2.638,55.366,0.234,55.366,0.234s1.836-16.063,0.178-21.024
								C242.924,847.684,234.991,853.186,229.591,851.9z"/>
							<g>
								<g>
									<path fill="#FFFFFF" d="M218.153,862.889c0.244,0.079,0.518,0.061,0.76-0.07c0.473-0.255,0.648-0.845,0.392-1.315
										c-0.083-0.16-2.122-3.886-4.942-5.386c-3.753-2-6.757,0.081-6.884,0.17c-0.437,0.311-0.541,0.918-0.23,1.355
										c0.309,0.437,0.916,0.541,1.355,0.229c0.083-0.056,2.172-1.456,4.845-0.037c2.3,1.221,4.13,4.559,4.148,4.592
										C217.72,862.655,217.923,862.814,218.153,862.889z"/>
								</g>
								<g>
									<path fill="#FFFFFF" d="M221.108,860.216c0.245,0.079,0.518,0.063,0.763-0.07c0.473-0.255,0.646-0.844,0.394-1.315
										c-0.087-0.16-2.124-3.886-4.944-5.386c-3.755-2.002-6.757,0.078-6.884,0.17c-0.439,0.309-0.541,0.916-0.23,1.355
										c0.309,0.437,0.918,0.54,1.355,0.229c0.081-0.056,2.174-1.459,4.847-0.039c2.307,1.229,4.128,4.559,4.145,4.594
										C220.677,859.981,220.88,860.142,221.108,860.216z"/>
								</g>
								<g>
									<path fill="#FFFFFF" d="M214.177,865.023c0.245,0.079,0.52,0.063,0.76-0.07c0.473-0.255,0.651-0.844,0.394-1.316
										c-0.085-0.159-2.122-3.885-4.944-5.385c-3.752-2.002-6.755,0.078-6.884,0.17c-0.437,0.309-0.539,0.915-0.228,1.354
										c0.309,0.438,0.916,0.541,1.355,0.23c0.081-0.056,2.176-1.459,4.845-0.039c2.308,1.229,4.127,4.561,4.146,4.594
										C213.744,864.789,213.947,864.948,214.177,865.023z"/>
								</g>
							</g>
						</g>
					</g>
				</g>
			</g>
			<g>
				<polygon fill="#FDA893" points="301.072,835.597 302.738,852.506 316.563,852.284 317.575,834.335 				"/>
				<g>
					<g>
						<path fill="#FD4059" d="M329.529,728.628c-1.54,31.017-0.728,71.166-0.064,93.177c0.257,8.897-6.867,16.256-15.765,16.256
							h-11.807c-2.609,0-5.089-0.643-7.25-1.755c-1.306-0.684-2.524-1.54-3.573-2.565c-3.166-2.974-5.091-7.229-4.942-11.936
							c0.792-26.032,1.904-75.764-0.555-90.931c-2.437-15.037-6.631-82.844-8.79-119.486c-0.709-12.235-1.198-20.984-1.326-23.144
							l50.351,0.663c0.151,2.609,0.385,6.631,0.663,11.723C328.097,629.934,331.241,694.469,329.529,728.628z"/>
					</g>
				</g>
				<path fill="#E51C4A" d="M326.471,600.63c-9.476,2.588-28.279,7.335-49.688,10.758c-0.709-12.235-1.198-20.984-1.326-23.144
					l50.351,0.663C325.959,591.517,326.193,595.538,326.471,600.63z"/>
				<g>
					<path fill="#E51C4A" d="M293.998,823.04c0.12,5.573,0.356,9.902,0.65,13.255c-1.313-0.676-2.52-1.531-3.584-2.547
						c-0.203-2.976-0.356-6.485-0.448-10.634c-0.29-13.877,0.166-31.089,0.605-47.738c0.535-20.153,1.036-39.197-0.029-47.088
						c-2.429-17.983-7.839-115.054-9.248-140.85l3.375-0.151c1.413,25.813,6.809,122.684,9.225,140.55
						c1.106,8.162,0.593,27.336,0.058,47.63C294.164,792.075,293.706,809.243,293.998,823.04z"/>
				</g>
				<g>
					<path fill="#0172CE" d="M308.13,849.905c0,0,7.047-1.88,8.998-1.843c1.948,0.04,15.006,14.64,19.403,15.5
						c7.974,1.561,7.982,14.01,3.131,14.627c-14.035,1.788-38.041-4.14-38.041-4.14s-2.211-15.975-1.252-20.987
						C301.331,848.051,304.208,851.38,308.13,849.905z"/>
					<g>
						<g>
							<path fill="#FFFFFF" d="M319.749,863.542c-0.25,0.056-0.522,0.012-0.752-0.141c-0.444-0.301-0.564-0.904-0.266-1.35
								c0.1-0.149,2.487-3.666,5.438-4.888c3.925-1.633,6.718,0.725,6.834,0.826c0.406,0.351,0.452,0.964,0.1,1.37
								c-0.348,0.406-0.962,0.451-1.37,0.1c-0.077-0.063-2.024-1.658-4.822-0.5c-2.404,0.997-4.542,4.145-4.565,4.176
								C320.2,863.352,319.983,863.49,319.749,863.542z"/>
						</g>
						<g>
							<path fill="#FFFFFF" d="M317.061,860.6c-0.249,0.054-0.522,0.012-0.752-0.144c-0.445-0.298-0.563-0.903-0.263-1.349
								c0.1-0.149,2.482-3.664,5.434-4.886c3.929-1.636,6.718,0.723,6.836,0.824c0.406,0.351,0.452,0.966,0.102,1.372
								c-0.353,0.406-0.966,0.451-1.372,0.1c-0.079-0.064-2.026-1.66-4.82-0.502c-2.416,1.003-4.546,4.145-4.567,4.176
								C317.513,860.409,317.297,860.548,317.061,860.6z"/>
						</g>
						<g>
							<path fill="#FFFFFF" d="M323.501,866.047c-0.249,0.056-0.522,0.013-0.75-0.143c-0.447-0.299-0.563-0.903-0.265-1.35
								c0.1-0.148,2.482-3.663,5.433-4.888c3.929-1.633,6.72,0.725,6.838,0.826c0.406,0.351,0.452,0.966,0.099,1.37
								c-0.35,0.406-0.965,0.452-1.372,0.102c-0.075-0.064-2.026-1.66-4.82-0.501c-2.416,1-4.544,4.144-4.565,4.175
								C323.953,865.856,323.737,865.995,323.501,866.047z"/>
						</g>
					</g>
				</g>
			</g>
			<g>
				<g>
					<g>
						<path fill="#0172CE" d="M200.96,593.303c45.38,11.492,90.8,11.452,136.279,0c0.137-12.997-0.042-56.597-0.978-101.587
							c-0.058-2.365-0.1-4.75-0.158-7.135c-0.019-1.132-0.058-2.285-0.079-3.419c-0.017-1.191-0.038-2.385-0.077-3.577
							c-0.019-1.191-0.06-2.385-0.079-3.558c-0.039-1.191-0.058-2.383-0.097-3.574c-0.021-1.154-0.058-2.288-0.079-3.421
							c-0.019-1.191-0.058-2.383-0.098-3.556c-0.039-1.194-0.077-2.386-0.118-3.577c-0.037-1.193-0.058-2.387-0.116-3.558
							c-0.021-1.154-0.058-2.286-0.098-3.421c-0.06-2.404-0.139-4.787-0.234-7.133c-1.291-37.172-3.245-67.622-6.159-71.628
							c-6.759-9.283-37.601-23.023-47.059-29.667v1.483c0,0-5.922,7.837-12.586,7.253c-6.059-0.51-10.692-7.526-11.474-8.794
							c-4.71,3.321-15.576,8.676-26.111,14.401c-10.533,5.709-20.734,11.747-24.116,16.398c-2.893,4.006-4.592,33.909-5.57,70.553
							v0.116c-0.021,0.684-0.039,1.368-0.058,2.052v0.1c0,0.525-0.021,1.055-0.04,1.602c-0.019,1.075-0.06,2.169-0.079,3.264
							c-0.019,1.135-0.058,2.267-0.077,3.421c-0.021,1.171-0.042,2.364-0.079,3.558c-0.021,1.191-0.039,2.383-0.079,3.577
							c-0.021,1.173-0.039,2.364-0.058,3.556c-0.021,1.133-0.042,2.267-0.058,3.421c-0.021,1.191-0.042,2.383-0.061,3.574
							c-0.019,1.173-0.039,2.366-0.058,3.558c-0.019,1.192-0.04,2.386-0.06,3.577c-0.019,1.134-0.038,2.267-0.038,3.419
							c-0.042,2.385-0.079,4.749-0.1,7.135C200.59,536.569,200.784,580.19,200.96,593.303z"/>
					</g>
				</g>
				<g>
					<path fill="#004FC3" d="M293.5,443.695l-1.691,14.211h13.646v16.917h-15.788l-1.918,15.452h-18.044l1.917-15.452h-11.165
						l-1.917,15.452h-18.044l1.915-15.452h-13.643v-16.917h15.788l1.691-14.211H232.6V426.78h15.79l1.915-15.452h18.044
						l-1.915,15.452h11.165l1.917-15.452h18.044l-1.917,15.452h13.647v16.915H293.5z M275.457,443.695h-11.165l-1.693,14.211h11.165
						L275.457,443.695z"/>
				</g>
				<g>
					<path fill="#004FC3" d="M215.65,426.799c-3.906,5.28-9.606,17.24-12.167,22.769c-0.348,0.759-0.638,1.397-0.858,1.878
						c-0.29,0.634-0.452,1.003-0.464,1.03c-0.083,0.188-0.211,0.34-0.373,0.445c0.023-1.095,0.05-2.183,0.079-3.266
						c0.008-0.539,0.027-1.076,0.042-1.604v-0.087c0.522-1.127,1.144-2.449,1.836-3.901c2.909-6.069,7.064-14.253,10.211-18.513
						c0.344-0.469,1.007-0.565,1.475-0.22C215.898,425.674,215.99,426.335,215.65,426.799z"/>
				</g>
				<g>
					<path fill="#004FC3" d="M302.734,385.848c-0.012,0-0.024,0-0.035,0c-18.071-0.576-32.015-8.095-40.529-14.301
						c-9.226-6.722-14.116-13.222-14.319-13.495c-0.348-0.467-0.249-1.125,0.216-1.474c0.468-0.348,1.127-0.251,1.475,0.216
						c0.191,0.257,19.692,25.881,53.223,26.948c0.583,0.019,1.038,0.503,1.02,1.086
						C303.766,385.397,303.298,385.848,302.734,385.848z"/>
				</g>
				<g>
					<path fill="#004FC3" d="M241.853,557.935c-0.549,0-1.014-0.427-1.051-0.983c-0.037-0.581,0.402-1.082,0.982-1.119
						c29.648-1.944,47.336-16.969,56.951-29.229c10.456-13.333,13.925-26.39,13.958-26.52c0.145-0.562,0.719-0.901,1.283-0.755
						c0.563,0.146,0.901,0.72,0.756,1.283c-0.141,0.547-3.587,13.55-14.286,27.222c-9.884,12.628-28.059,28.103-58.525,30.1
						C241.898,557.935,241.875,557.935,241.853,557.935z"/>
				</g>
				<g>
					<path fill="#004FC3" d="M257.772,539.109c-0.466,0-0.891-0.311-1.017-0.781c-0.151-0.56,0.18-1.14,0.742-1.291
						c25.763-6.964,30.736-28.481,30.784-28.699c0.123-0.567,0.686-0.93,1.254-0.804c0.568,0.122,0.928,0.682,0.804,1.25
						c-0.05,0.235-1.297,5.85-5.91,12.418c-4.244,6.047-12.267,14.053-26.382,17.87
						C257.955,539.095,257.862,539.109,257.772,539.109z"/>
				</g>
			</g>
			<g>
				<path fill="#FDA893" d="M370.609,591.446c-0.648,9.221-6.183,16.069-6.212,22.139c-0.027,6.075-7.037,2.101-3.792-9.893
					c3.241-11.987-1.566-23.592-4.136-23.483c-2.57,0.111,0.816,13.515-1.882,17.967c-2.702,4.447-4.741-4.898-7.107-10.682
					c-2.458-6.001-1.082-18.45,1.144-27.22c2.226-8.765-8.703-64.375-7.271-80.043l-3.945-20.328l-2.306-11.86l-0.431-12.375
					l21.065-8.347c0.796,3.975,1.608,8.094,2.412,12.234c0.356,1.827,0.705,3.659,1.048,5.484
					c2.818,14.822,5.351,29.414,6.38,38.776c2.845,25.892-1.826,78.7-1.826,78.7S371.219,582.801,370.609,591.446z"/>
				<path fill="#FF877C" d="M359.196,445.04c-4.749,5.427-12.341,12.338-21.789,14.863l-2.306-11.86l-0.431-12.375l21.065-8.347
					c0.796,3.975,1.608,8.094,2.412,12.234C358.504,441.383,358.852,443.215,359.196,445.04z"/>
				<path fill="#0172CE" d="M365.043,433.302c0,0-2.511,2.981-6.898,6.254c-5.307,3.98-13.372,8.404-23.02,8.487
					c-1.165-34.307-2.88-63.292-5.377-71.805C334.193,381.726,355.539,408.744,365.043,433.302z"/>
			</g>
			<g>
				<path fill="#004FC3" d="M320.67,423.355c3.9,5.275,9.607,17.235,12.164,22.767c0.348,0.758,0.638,1.395,0.858,1.879
					c0.29,0.633,0.454,1.001,0.464,1.028c0.174,0.394,0.56,0.626,0.965,0.626h0.021c-0.013-0.537-0.027-1.074-0.043-1.606
					c0.313,0,0.622,0,0.922-0.01c-0.141-0.312-0.485-1.069-0.974-2.139c-0.618-1.343-1.469-3.188-2.474-5.282
					c-2.91-6.073-7.064-14.256-10.208-18.513c-0.348-0.468-1.007-0.569-1.476-0.222C320.422,422.228,320.327,422.891,320.67,423.355
					z"/>
			</g>
			<g>
				<path fill="#29245D" d="M301.839,278.286c0,0,2.186-13.365-1.059-17.914c-3.245-4.55-8.54-3.187-14.196-8.417
					c-5.657-5.234-22.876-0.228-30.417-1.593c-4.148-0.753-8.562-0.193-12.621-1.018c-5.806-1.178-8.915,4.592-7.516,10.271
					c0.889,3.613,2.708,9.041,7.934,10.462C243.964,270.078,294.085,260.94,301.839,278.286z"/>
				<path fill="#29245D" d="M302.981,288.962c0,19.358-11.917,32.698-31.275,32.698c-19.358,0-32.848-14.343-32.848-33.701
					c0-19.356,11.463-34.022,30.821-34.022C292.894,253.937,302.981,269.605,302.981,288.962z"/>
				<g>
					<path fill="#FF877C" d="M298.631,297.298c0,0,5.379-7.172,9.378-1.243c4,5.931-1.656,23.444-11.446,19.17L298.631,297.298z"/>
					<g>
						<g>
							<g>
								<path fill="#F25B56" d="M298.702,309.812c0.361,0,0.692-0.238,0.796-0.603c1.517-5.408,7.12-7.601,7.176-7.621
									c0.425-0.162,0.64-0.643,0.479-1.067c-0.162-0.427-0.638-0.643-1.065-0.48c-0.261,0.097-6.436,2.494-8.183,8.721
									c-0.122,0.439,0.135,0.896,0.574,1.02C298.553,309.802,298.627,309.812,298.702,309.812z"/>
							</g>
						</g>
					</g>
					<g>
						<path fill="#F25B56" d="M304.354,307.087c0.153,0,0.311-0.041,0.448-0.131c0.385-0.246,0.495-0.76,0.249-1.144
							c-0.042-0.064-1.032-1.577-3.106-2.503c-0.415-0.188-0.906,0-1.092,0.416c-0.187,0.419,0,0.908,0.417,1.095
							c1.604,0.717,2.383,1.877,2.389,1.89C303.818,306.954,304.085,307.087,304.354,307.087z"/>
					</g>
				</g>
				<g>
					<path fill="#FF877C" d="M243.206,297.298c0,0-5.377-7.172-9.375-1.243c-3.999,5.931,1.653,23.444,11.444,19.17L243.206,297.298
						z"/>
					<g>
						<g>
							<g>
								<path fill="#F25B56" d="M243.137,309.812c-0.363,0-0.694-0.238-0.796-0.603c-1.519-5.408-7.118-7.601-7.176-7.621
									c-0.427-0.162-0.643-0.643-0.481-1.067c0.164-0.427,0.641-0.643,1.067-0.48c0.263,0.097,6.434,2.494,8.183,8.721
									c0.124,0.439-0.133,0.896-0.574,1.02C243.286,309.802,243.211,309.812,243.137,309.812z"/>
							</g>
						</g>
					</g>
					<g>
						<g>
							<g>
								<path fill="#F25B56" d="M237.482,307.087c-0.153,0-0.307-0.041-0.447-0.131c-0.383-0.246-0.493-0.76-0.247-1.144
									c0.042-0.064,1.032-1.577,3.106-2.503c0.415-0.188,0.906,0,1.092,0.416c0.187,0.419,0,0.908-0.417,1.095
									c-1.604,0.717-2.383,1.877-2.392,1.89C238.021,306.954,237.756,307.087,237.482,307.087z"/>
							</g>
						</g>
					</g>
				</g>
				<path fill="#FDA893" d="M257.682,330.079v17.417c0,0,5.193,8.868,12.217,9.474c7.016,0.611,13.253-7.636,13.253-7.636v-18.032
					L257.682,330.079z"/>
				<path fill="#FF877C" d="M257.682,330.079v7.728c4.712,5.23,13.083,6.537,25.471,4.708v-11.213L257.682,330.079z"/>
				<path fill="#FDA893" d="M301.487,296.967c-0.071,1.011-0.153,2.03-0.255,3.064c-0.261,2.593-0.611,5.257-1.086,7.911
					c-0.019,0.094-0.031,0.185-0.048,0.268c-2.337,12.844-7.596,25.467-18.927,29.516c-25.67,9.163-34.835-12.843-38.505-25.676
					c-0.402-1.424-0.771-3.009-1.09-4.702c-0.012-0.063-0.025-0.137-0.042-0.211c-0.356-1.902-0.665-3.925-0.926-6.009
					c-0.197-1.542-0.362-3.108-0.512-4.688c-0.373-3.834-0.618-7.68-0.775-11.095c-0.375-7.8,4.295-14.973,11.602-17.774
					c10.528-4.049,26.513-7.253,41.661,1.334c5.595,3.171,9.105,9.047,9.229,15.475C301.88,287.928,301.827,292.285,301.487,296.967
					z"/>
				<ellipse fill="#29245D" cx="283.925" cy="298.319" rx="2.141" ry="3.367"/>
				<ellipse fill="#29245D" cx="257.679" cy="298.319" rx="2.14" ry="3.367"/>
				<path fill="#29245D" d="M251.163,287.224c0,0,6.751-2.669,11.952-0.423l-0.522,2.891c0,0-7.629-0.645-11.476,0.914
					C250.773,289.49,250.723,288.367,251.163,287.224z"/>
				<path fill="#29245D" d="M291.205,287.224c0,0-6.751-2.669-11.952-0.423l0.522,2.891c0,0,7.629-0.645,11.476,0.914
					C291.594,289.49,291.644,288.367,291.205,287.224z"/>
				<g>
					<path fill="#FF877C" d="M270.079,312.914c1.386,0.17,2.827-0.199,3.05-0.262c0.441-0.12,0.698-0.575,0.578-1.015
						c-0.118-0.441-0.574-0.701-1.016-0.58c-0.777,0.207-2.615,0.464-3.33-0.094c-0.139-0.107-0.321-0.309-0.311-0.814
						c0.054-2.905,2.014-12.42,2.035-12.516c0.093-0.447-0.197-0.887-0.645-0.979c-0.448-0.095-0.883,0.195-0.978,0.643
						c-0.081,0.398-2.01,9.765-2.068,12.822c-0.021,1.148,0.506,1.803,0.949,2.151C268.834,312.648,269.451,312.839,270.079,312.914
						z"/>
				</g>
				<path fill="#FFFFFF" d="M281.391,317.879c-0.676,3.402-2.922,9.66-10.494,9.66c-7.592,0-9.718-5.719-10.452-9.66H281.391z"/>
				<path fill="#29245D" d="M240.192,297.443h3.751c-0.415-3.764,0.953-8.313,2.084-11.345c2.561-6.874-2.893-9.907,1.517-13.348
					c4.41-3.452,15.388-1.973,23.021-2.221c7.682-0.247,20.025-0.139,23.022,0.555c3.004,0.688,1.355,5.674,0.257,9.539
					c-1.111,3.855,3.68,8.124,4.484,12.121c0.23,1.146,0.183,2.852-0.002,4.698h3.127c0.369-4.863,0.427-9.392,0.358-13.063
					c-0.125-6.428-3.632-12.302-9.227-15.471c-15.147-8.591-31.134-5.387-41.659-1.342c-7.307,2.806-11.981,9.979-11.608,17.783
					C239.496,289.058,239.77,293.274,240.192,297.443z"/>
				<g>
					<g>
						<path fill="#FFFFFF" d="M256.981,309.843c-5.437,0-9.859-4.422-9.859-9.857c0-5.435,4.422-9.856,9.859-9.856
							c5.433,0,9.857,4.422,9.857,9.856C266.838,305.421,262.414,309.843,256.981,309.843z M256.981,291.664
							c-4.59,0-8.322,3.731-8.322,8.321s3.732,8.322,8.322,8.322c4.588,0,8.32-3.732,8.32-8.322S261.569,291.664,256.981,291.664z"
							/>
					</g>
					<g>
						<path fill="#FFFFFF" d="M283.925,309.843c-5.436,0-9.857-4.422-9.857-9.857c0-5.435,4.422-9.856,9.857-9.856
							c5.435,0,9.857,4.422,9.857,9.856C293.782,305.421,289.36,309.843,283.925,309.843z M283.925,291.664
							c-4.59,0-8.322,3.731-8.322,8.321s3.732,8.322,8.322,8.322s8.322-3.732,8.322-8.322S288.515,291.664,283.925,291.664z"/>
					</g>
					<g>
						<path fill="#FFFFFF" d="M248.788,296.812c-0.194,0-0.392-0.075-0.542-0.222l0,0c-0.044-0.046-4.521-4.39-10.398-3.021
							c-0.41,0.1-0.825-0.159-0.92-0.572c-0.097-0.414,0.16-0.826,0.572-0.924c6.718-1.566,11.625,3.22,11.832,3.425
							c0.298,0.301,0.301,0.786,0,1.088C249.182,296.734,248.985,296.812,248.788,296.812z"/>
					</g>
					<g>
						<path fill="#FFFFFF" d="M292.299,296.812c-0.249,0-0.498-0.123-0.643-0.351c-0.232-0.354-0.132-0.829,0.222-1.061
							c0.294-0.193,7.27-4.693,13.206-3.716c0.418,0.068,0.7,0.464,0.634,0.883c-0.071,0.419-0.464,0.702-0.885,0.634
							c-5.342-0.88-12.047,3.442-12.116,3.483C292.589,296.771,292.444,296.812,292.299,296.812z"/>
					</g>
					<g>
						<path fill="#FFFFFF" d="M274.609,297.771c-0.019-0.022-1.842-2.49-4.244-2.49c-2.377,0-4.026,2.463-4.043,2.488l-1.287-0.839
							c0.085-0.133,2.111-3.188,5.33-3.188c3.193,0,5.398,3.003,5.489,3.129L274.609,297.771z"/>
					</g>
				</g>
			</g>
		</g>
	</g>
	<g>
		<ellipse opacity="0.1" fill="#D1E6EC" cx="754.326" cy="879.371" rx="147.334" ry="18.823"/>
		<g>
			<g>
				<path fill="#004FC3" d="M649.521,883.815H753.48c0-5.331-2.163-10.159-5.656-13.651c-3.494-3.502-8.322-5.659-13.656-5.659
					h-0.178c0,0-22.064-2.878-22.064-20.897V736.084h-20.85v107.523c0,18.02-22.064,20.897-22.064,20.897h-0.182
					C658.166,864.505,649.521,873.15,649.521,883.815z"/>
				<polygon fill="#023386" points="691.076,736.084 691.076,740.36 711.925,746.55 711.925,736.084 				"/>
				<path fill="#0172CE" d="M601.525,736.084h199.95c-3.303-18.245-19.213-31.501-37.759-31.447l-62.218,0.166l-62.214-0.166
					C620.738,704.583,604.829,717.839,601.525,736.084z"/>
			</g>
			<g>
				<g>
					<path fill="#E51C4A" d="M732.075,502.136c5.222,19.305,31.555,69.596,41.779,76.803c13.307,9.383,55.032,26.994,76.735,35.975
						c3.917,1.62-10.605,18.755-10.605,18.755s-56.13-14.273-78.994-28.869c-6.469-4.13-20.485-18.152-38.227-46.263
						c-5.38-8.522-17.833-25.461-19.218-37.558C701.955,507.056,717.64,497.476,732.075,502.136z"/>
				</g>
				<g>
					<g>
						<g>
							<path fill="#FDA893" d="M794.794,837.076l-0.721,21.003c0,0,5.188,3.847,15.927,1.936l4.385-22.588L794.794,837.076z"/>
							<g>
								<path fill="#FD4059" d="M807.721,857.275c0,0,3.655-5.064,6.622-4.893c2.964,0.173,26.076,18.012,33.93,19.399
									c7.85,1.389,7.46,11.15,4.376,12.262c-3.514,1.264-61.555,0.176-61.555,0.176s-2.205-20.649-0.295-26.233
									C792.714,852.404,801.617,858.677,807.721,857.275z"/>
								<g>
									<g>
										<path fill="#FFFFFF" d="M820.531,869.771c-0.273,0.087-0.584,0.066-0.857-0.085c-0.531-0.292-0.722-0.959-0.432-1.489
											c0.1-0.177,2.429-4.364,5.624-6.032c4.252-2.224,7.626,0.149,7.767,0.25c0.489,0.354,0.601,1.041,0.249,1.532
											c-0.353,0.49-1.041,0.603-1.534,0.248c-0.091-0.064-2.437-1.664-5.466-0.085c-2.603,1.359-4.695,5.108-4.716,5.146
											C821.02,869.512,820.792,869.689,820.531,869.771z"/>
									</g>
									<g>
										<path fill="#FFFFFF" d="M817.219,866.73c-0.273,0.087-0.584,0.064-0.857-0.085c-0.53-0.294-0.726-0.959-0.431-1.489
											c0.095-0.179,2.428-4.366,5.623-6.032c4.252-2.228,7.622,0.147,7.763,0.249c0.493,0.354,0.605,1.04,0.249,1.531
											c-0.353,0.491-1.041,0.603-1.529,0.248c-0.092-0.064-2.441-1.664-5.471-0.085c-2.611,1.363-4.695,5.108-4.717,5.146
											C817.708,866.47,817.481,866.647,817.219,866.73z"/>
									</g>
									<g>
										<path fill="#FFFFFF" d="M824.999,872.214c-0.273,0.087-0.584,0.066-0.858-0.085c-0.53-0.292-0.725-0.96-0.431-1.49
											c0.096-0.178,2.429-4.364,5.624-6.032c4.252-2.225,7.621,0.147,7.767,0.251c0.489,0.353,0.601,1.038,0.248,1.529
											c-0.356,0.491-1.04,0.604-1.533,0.249c-0.091-0.064-2.44-1.664-5.466-0.085c-2.615,1.365-4.695,5.107-4.717,5.147
											C825.488,871.955,825.259,872.133,824.999,872.214z"/>
									</g>
								</g>
							</g>
						</g>
						<path fill="#29245D" d="M739.887,658.065c0,0,81.286-13.413,105.696,1.875c18.508,11.594-29.172,182.782-29.172,182.782
							c-8.492,2.646-20.291-1.038-24.899-5.646c0,0-7.501-20.205-0.613-78.652c0.916-7.767,0-25.489,8.272-56.868l-61.875-27.315
							L739.887,658.065z"/>
					</g>
					<g>
						<path fill="#FD4059" d="M667.511,477.523c0,0-22.524,7.354-34.563,17.928c-12.043,10.574-1.973,42.125-2.267,60.041
							s2.661,121.929,28.326,134.998c19.387,9.87,100.976-5.116,95.008-31.706c-3.971-17.688-11.492-50.193-16.719-94.171
							c-3.443-29.008-1.988-50.436-5.222-62.478c-3.229-12.041-40.941-25.848-40.941-25.848L667.511,477.523z"/>
						<g>
							<path fill="#E51C4A" d="M684.32,498.953c-11.745,0-22.583-12.486-23.051-13.033c-0.298-0.349-0.257-0.87,0.087-1.169
								c0.348-0.299,0.87-0.259,1.168,0.089c0.116,0.133,11.463,13.208,22.806,12.421c0.456-0.033,0.854,0.313,0.887,0.769
								c0.029,0.458-0.315,0.852-0.771,0.885C685.07,498.941,684.693,498.953,684.32,498.953z"/>
						</g>
						<g>
							<path fill="#E51C4A" d="M674.138,639.366c-0.415,0-0.775-0.311-0.825-0.733c-0.05-0.454,0.278-0.866,0.729-0.918
								c30.345-3.493,42.914-56.015,43.038-56.545c0.104-0.445,0.548-0.723,0.995-0.619c0.443,0.105,0.721,0.549,0.617,0.996
								c-0.514,2.209-12.967,54.189-44.46,57.815C674.2,639.364,674.171,639.366,674.138,639.366z"/>
						</g>
						<g>
							<path fill="#E51C4A" d="M686.218,623.473c-0.277,0-0.547-0.139-0.705-0.394c-0.24-0.39-0.12-0.899,0.27-1.14
								c16.138-9.95,18.538-24.617,18.562-24.764c0.066-0.452,0.485-0.768,0.941-0.694c0.451,0.068,0.767,0.488,0.696,0.94
								c-0.092,0.632-2.504,15.556-19.329,25.929C686.516,623.434,686.368,623.473,686.218,623.473z"/>
						</g>
					</g>
					<g>
						<circle fill="#29245D" cx="687.234" cy="422.908" r="33.239"/>
						<path fill="#29245D" d="M720.471,422.729c0,0,9.718-0.92,10.087-10.133c0.315-7.841-9.557-4.466-7.708-10.312
							c1.848-5.843,4.566-10.974-2.909-13.837c-6.54-2.508-7.477,2.113-15.177-6.192c-9.101-9.81-20.423,7.183-29.897,6.078
							c-13.975-1.629-17.104,5.883-19.569,11.9c-2.466,6.016,2.084,11.343,2.084,11.343L720.471,422.729z"/>
						<g>
							<path fill="#FF877C" d="M712.85,436.882c0,0,6.406-5.996,9.25,0.402c2.847,6.396-5.591,22.317-14.303,16.527L712.85,436.882z
								"/>
							<g>
								<path fill="#F25B56" d="M710.782,448.959c0.348,0.062,0.713-0.112,0.87-0.448c2.387-4.952,8.16-6.112,8.218-6.123
									c0.439-0.085,0.726-0.508,0.643-0.947c-0.083-0.438-0.505-0.727-0.944-0.646c-0.27,0.053-6.627,1.311-9.375,7.015
									c-0.194,0.404-0.024,0.889,0.382,1.082C710.641,448.924,710.711,448.946,710.782,448.959z"/>
							</g>
							<g>
								<g>
									<path fill="#F25B56" d="M716.7,447.297c0.146,0.024,0.303,0.011,0.452-0.052c0.414-0.172,0.604-0.648,0.435-1.059
										c-0.029-0.071-0.729-1.695-2.569-2.942c-0.369-0.253-0.874-0.156-1.123,0.215c-0.253,0.369-0.153,0.872,0.216,1.123
										c1.421,0.966,1.977,2.218,1.98,2.229C716.203,447.075,716.434,447.251,716.7,447.297z"/>
								</g>
							</g>
						</g>
						<path fill="#FDA893" d="M669.658,461.837l-2.967,16.791c0,0,5.595,8.62,12.263,10.4c6.66,1.786,12.196-5.524,12.196-5.524
							l2.855-16.145L669.658,461.837z"/>
						<path fill="#FF877C" d="M669.658,461.837l-1.318,7.449c3.651,5.848,11.5,8.533,23.755,8.882l1.91-10.809L669.658,461.837z"/>
						<path fill="#FDA893" d="M659.579,415.587c-0.845,6.579-1.666,14.849-1.575,21.594c0.025,1.683,0.104,3.278,0.253,4.716
							c1.347,12.997,6.436,35.778,32.74,31.314c11.616-1.969,18.836-13.245,23.283-25.227c3.017-8.137,4.749-16.591,5.711-22.682
							c0.974-6.218-1.405-12.479-6.259-16.487c-13.141-10.86-29.097-10.5-39.934-8.393
							C666.276,401.882,660.549,408.001,659.579,415.587z"/>
						<path fill="#29245D" d="M671.854,450.03l14.215,2.579l12.084,2.094c0,0-5.988-7.394-11.84-4.843
							C686.314,449.86,681.17,444.877,671.854,450.03z"/>
						<path fill="#29245D" d="M700.023,436.874c-0.314,1.792,0.349,3.408,1.488,3.609c1.14,0.203,2.32-1.088,2.64-2.88
							c0.314-1.79-0.353-3.409-1.492-3.61C701.519,433.793,700.338,435.084,700.023,436.874z"/>
						<path fill="#29245D" d="M675.862,432.604c-0.315,1.792,0.352,3.408,1.492,3.611c1.135,0.199,2.316-1.09,2.636-2.882
							c0.315-1.793-0.353-3.409-1.492-3.61S676.177,430.811,675.862,432.604z"/>
						<path fill="#29245D" d="M710.558,428.459c0,0-7.986-4.913-15.106-3.225l0.009,3.169c0,0,7.447-0.334,13.995,3.522
							C710.143,430.587,710.861,430.013,710.558,428.459z"/>
						<path fill="#29245D" d="M671.257,421.511c0,0,9.188-1.875,15.297,2.151l-1.094,2.972c0,0-6.879-2.864-14.356-1.488
							C670.917,423.651,670.441,422.868,671.257,421.511z"/>
						<g>
							<g>
								<g>
									<path fill="#FF877C" d="M686.334,447.624c-1.347-0.238-2.586-0.999-2.781-1.119c-0.377-0.238-0.489-0.737-0.253-1.116
										c0.24-0.38,0.742-0.491,1.119-0.255c0.667,0.42,2.317,1.185,3.145,0.87c0.162-0.063,0.391-0.199,0.522-0.676
										c0.783-2.733,1.671-12.205,1.679-12.3c0.041-0.446,0.436-0.773,0.883-0.731c0.447,0.039,0.771,0.437,0.729,0.88
										c-0.037,0.398-0.911,9.719-1.731,12.597c-0.308,1.084-0.987,1.546-1.505,1.743
										C687.578,447.731,686.948,447.731,686.334,447.624z"/>
								</g>
							</g>
						</g>
						<path fill="#FFFFFF" d="M695.505,454.278c-1.23,3.164-4.463,8.816-11.761,7.525c-7.319-1.295-8.396-7.172-8.429-11.096
							L695.505,454.278z"/>
						<g>
							<path fill="#FF877C" d="M683.106,465.985c-2.064-0.364-3.63-1.72-3.697-1.775c-0.335-0.297-0.369-0.809-0.075-1.145
								c0.294-0.337,0.804-0.37,1.144-0.076c0.008,0.011,1.301,1.117,2.909,1.402c1.476,0.26,3.039-0.337,3.054-0.344
								c0.414-0.166,0.887,0.037,1.053,0.454c0.162,0.416-0.041,0.885-0.455,1.051C686.96,465.586,685.054,466.329,683.106,465.985z
								"/>
						</g>
						<path fill="#29245D" d="M712.729,442.349c1.182-3.183,2.528-7.323,2.483-9.577c-0.1-3.989-2.889-6.817-1.169-10.341
							c1.724-3.543-1.496-8.227-4.273-9.398c-2.768-1.182-9.776-0.938-15.868-5.268c-5.81-4.141-17.224-3.932-19.743-0.179
							c-3.046,4.547-0.166,5.537-7.045,9.818c-2.739,1.709-0.912,7.725-1.144,11.384c-0.112,1.685-0.228,2.495-0.609,4.259
							l-0.183,0.897l-7.103-1.258c0.199-5.705,0.837-11.924,1.5-17.102c0.97-7.589,6.706-13.699,14.223-15.16
							c10.837-2.107,26.789-2.477,39.939,8.393c4.849,4.009,7.231,10.265,6.249,16.485c-0.758,4.828-2.006,11.148-3.999,17.622
							L712.729,442.349z"/>
						<g>
							<path fill="#FDA893" d="M660.677,436.313c0.352-1.854,0.551-3.736,0.547-5.622c0-2.582-0.323-4.981-2.702-6.478
								c-1.911-1.202-4.107-1.607-6.084,0.438c-4.865,5.035-3.717,23.583,6.453,21.13L660.677,436.313z"/>
							<g>
								<g>
									<g>
										<path fill="#FF877C" d="M657.979,440.276c-0.327-0.129-0.547-0.464-0.51-0.833c0.539-5.473-3.788-9.466-3.833-9.503
											c-0.332-0.303-0.356-0.813-0.058-1.144c0.298-0.332,0.812-0.36,1.144-0.063c0.203,0.185,4.981,4.567,4.36,10.866
											c-0.045,0.445-0.439,0.771-0.887,0.728C658.12,440.322,658.045,440.304,657.979,440.276z"/>
									</g>
								</g>
							</g>
							<g>
								<g>
									<g>
										<path fill="#FF877C" d="M653.793,435.78c-0.141-0.055-0.27-0.149-0.36-0.278c-0.266-0.364-0.183-0.87,0.178-1.131
											c0.063-0.046,1.504-1.069,3.726-1.18c0.443-0.022,0.825,0.323,0.845,0.769c0.025,0.448-0.323,0.829-0.767,0.85
											c-1.72,0.083-2.843,0.866-2.851,0.873C654.332,435.851,654.038,435.877,653.793,435.78z"/>
									</g>
								</g>
							</g>
						</g>
					</g>
					<g>
						<g>
							<path fill="#FDA893" d="M749.265,837.076l-0.725,21.003c0,0,5.192,3.847,15.931,1.936l4.385-22.588L749.265,837.076z"/>
							<g>
								<path fill="#FD4059" d="M762.187,857.275c0,0,3.66-5.064,6.627-4.893c2.964,0.173,26.076,18.012,33.926,19.399
									c7.849,1.389,7.464,11.15,4.38,12.262c-3.514,1.264-61.559,0.176-61.559,0.176s-2.205-20.649-0.29-26.233
									C747.185,852.404,756.087,858.677,762.187,857.275z"/>
								<g>
									<g>
										<path fill="#FFFFFF" d="M775.001,869.771c-0.273,0.087-0.584,0.066-0.857-0.085c-0.53-0.292-0.726-0.959-0.432-1.489
											c0.096-0.177,2.429-4.364,5.624-6.032c4.248-2.224,7.622,0.149,7.763,0.25c0.493,0.354,0.604,1.041,0.248,1.532
											c-0.352,0.49-1.036,0.603-1.529,0.248c-0.091-0.064-2.44-1.664-5.466-0.085c-2.606,1.359-4.7,5.108-4.721,5.146
											C775.491,869.512,775.263,869.689,775.001,869.771z"/>
									</g>
									<g>
										<path fill="#FFFFFF" d="M771.69,866.73c-0.277,0.087-0.588,0.064-0.861-0.085c-0.53-0.294-0.722-0.959-0.432-1.489
											c0.1-0.179,2.429-4.366,5.624-6.032c4.257-2.228,7.626,0.147,7.767,0.249c0.489,0.354,0.601,1.04,0.249,1.531
											c-0.353,0.491-1.041,0.603-1.534,0.248c-0.091-0.064-2.44-1.664-5.466-0.085c-2.615,1.363-4.695,5.108-4.717,5.146
											C772.179,866.47,771.948,866.647,771.69,866.73z"/>
									</g>
									<g>
										<path fill="#FFFFFF" d="M779.469,872.214c-0.277,0.087-0.584,0.066-0.857-0.085c-0.531-0.292-0.726-0.96-0.436-1.49
											c0.1-0.178,2.433-4.364,5.624-6.032c4.256-2.225,7.625,0.147,7.767,0.251c0.493,0.353,0.604,1.038,0.248,1.529
											c-0.353,0.491-1.04,0.604-1.529,0.249c-0.095-0.064-2.445-1.664-5.471-0.085c-2.61,1.365-4.695,5.107-4.716,5.147
											C779.958,871.955,779.73,872.133,779.469,872.214z"/>
									</g>
								</g>
							</g>
						</g>
						<path fill="#233B78" d="M641.808,660.02c0,0,140.969-7.754,165.163-0.079c20.816,6.606-36.089,182.782-36.089,182.782
							c-8.492,2.646-20.291-1.038-24.903-5.646c0,0-4.326-10.519,2.562-68.965c0.916-7.769,1.886-31.984,10.157-63.362
							l-93.512,0.473c-20.034,0-26.37-16.896-24.265-36.818L641.808,660.02z"/>
					</g>
				</g>
				<g>
					<path fill="#FDA893" d="M777.613,616.801c0,0,21.223,3.589,30.075,10.979c8.852,7.389,20.717,13.75,18.947,17.571
						c-1.77,3.823-14.265-4.287-14.265-4.287s-2.972,6.886-13.208,9.878c-10.231,2.992-32.105-14.599-32.105-14.599L777.613,616.801
						z"/>
					<g>
						<g>
							<path fill="#E51C4A" d="M637.738,491.753c11.836,17.942,57.146,79.979,67.37,87.186
								c13.308,9.383,50.536,28.882,72.239,37.862c3.917,1.62-8.698,20.07-8.698,20.07s-53.541-17.477-76.408-32.072
								c-6.466-4.13-33.371-31.08-50.524-54.984c-5.876-8.188-15.433-19.562-16.817-31.658
								C623.308,504.233,627.68,496.784,637.738,491.753z"/>
						</g>
					</g>
				</g>
				<g>
					<path fill="#004FC3" d="M747.484,659.94h107.987c2.711,0,4.907-2.196,4.907-4.908v-5.533c0-2.712-2.196-4.909-4.907-4.909
						H747.484c-2.711,0-4.911,2.197-4.911,4.909v5.533C742.573,657.744,744.773,659.94,747.484,659.94z"/>
					<path fill="#0172CE" d="M880.192,659.94l23.971-89.768c1.347-5.043-2.453-9.991-7.671-9.991h-52.744
						c-3.561,0-6.685,2.368-7.646,5.796l-26.395,93.963H880.192z"/>
					<path fill="#004FC3" d="M836.097,565.978l-26.176,93.19h-6.025l26.175-93.19c0.97-3.428,4.087-5.799,7.646-5.799h6.03
						C840.187,560.179,837.067,562.55,836.097,565.978z"/>
					<path fill="#004FC3" d="M849.657,614.082c-1.367,5.92,2.321,10.722,8.243,10.722c5.918,0,11.832-4.802,13.2-10.722
						c1.371-5.922-2.317-10.722-8.239-10.722S851.029,608.16,849.657,614.082z"/>
				</g>
			</g>
		</g>
	</g>
	<g>
		<path fill="#29245D" d="M564.351,68.648l0.033-0.088c0.477-1.053,0.912-2.119,1.301-3.184c5.728-15.634,6.291-47.727-29.337-55.32
			c0,0-29.362-6.859-42.423,19.565c0,0-5.881,12.242-10.061,21.135c0,0-3.506,18.686-21.136,20.335s-27.464,8.417-25.77,21.477
			c1.695,13.06-1.015,10.98-13.22,22.021c-12.207,11.042-20.721,31.693-10.191,45.285c10.529,13.594,49.922-18.566,75.149-4.197
			c25.226,14.369,67.589,10.167,72.513-10.278c4.927-20.446-14.804-33.921-13.755-44.306
			C548.507,90.709,561.152,78.584,564.351,68.648z"/>
		<g>
			<path fill="#CB2242" d="M542.063,114.589l30.954,85.131l-25.168,0.019l-18.716-36.422
				C529.133,163.317,531.072,120.444,542.063,114.589z"/>
			<path fill="#FDA893" d="M580.112,196.749c0,0,2.167,9.35,5.86,11.923c3.696,2.576,2.76-10.493,2.76-10.493
				s1.244,15.773,5.069,16.196c3.821,0.423,3.054-14.937,3.054-14.937s2.466,10.56,5.367,11.178
				c2.897,0.615,2.793-10.633,2.793-10.633s2.806,8.171,4.952,8.88c2.147,0.71,3.183-8.78,1.977-13.614
				c-1.206-4.836-7.224-1.901-7.224-1.901s-5.686-1.642-7.659,0.317c0,0-5.102-2.217-7.957-0.781
				C589.105,192.884,580.775,190.479,580.112,196.749z"/>
		</g>
		<g>
			<g>
				<path fill="#FD4059" d="M529.676,199.739c-0.24-12.069-0.788-4.309,1.32-18.941c0.066-0.572,0.139-1.158,0.209-1.738
					c0.197-0.333,0.377-0.659,0.551-0.985c3.229-5.72,4.952-9.031,6.067-13.195c3.506-13.15,0.878-21.499-0.071-29.768
					c0.767-3.817,3.452-16.72,4.31-20.523l-16.859-6.502l-3.514-1.354l-0.209-0.08v-0.007l-3.591-1.383l-0.274-0.102
					c-8.135-3.135-16.83-4.489-25.512-3.954c-0.572,0.036-1.131,0.073-1.703,0.13l-6.444,0.572l-0.247,0.021l-4.134,0.37
					l-23.948,2.129l-1.771,95.309C480.918,199.739,504.234,199.739,529.676,199.739z"/>
			</g>
			<g>
				<g>
					<g>
						<path fill="#FDA893" d="M479.58,102.298c7.816,15.758,26.963,33.366,36.772,27.933c6.034-3.335,8.5-14.293,8.856-22.146
							l-3.517-1.35l-0.213-0.08v-0.006l-3.589-1.384l-0.274-0.106c-8.133-3.134-16.834-4.484-25.514-3.95
							c-0.294,0.041-0.595,0.081-0.889,0.12c-0.273,0.034-0.542,0.067-0.808,0.101l-6.448,0.481l-0.249,0.021L479.58,102.298z"/>
					</g>
				</g>
			</g>
			<g>
				<g>
					<path fill="#CB2242" d="M531.209,179.059c-0.071,0.583-0.153,1.162-0.214,1.738c-4.154,0.887-17.192,2.719-39.356-2.589
						c-2.874-0.689-5.904-1.498-9.086-2.446c-0.655-0.19-1.021-0.878-0.831-1.533c0.197-0.645,0.887-1.02,1.529-0.823
						c31.973,9.497,48.298,4.731,48.459,4.685c0.019-0.004,0.029-0.01,0.046-0.014C531.578,178.396,531.4,178.725,531.209,179.059z"
						/>
				</g>
			</g>
		</g>
		<g>
			<g>
				<g>
					<path fill="#FF877C" d="M552.159,66.333c0,0,7.058-4.419,8.848,1.959c1.794,6.379-8.678,19.583-16.208,12.756L552.159,66.333z"
						/>
					<path fill="#FFFFFF" d="M549.125,81.417c-0.315,0.892,0.149,1.873,1.04,2.192c0.891,0.319,1.874-0.146,2.192-1.038
						c0.319-0.893-0.145-1.875-1.04-2.193C550.426,80.06,549.444,80.525,549.125,81.417z"/>
					<g>
						<path fill="#F25B56" d="M548.387,77.094c0.323,0.117,0.701,0.019,0.904-0.262c3.025-4.149,8.757-4.223,8.815-4.223
							c0.435-0.003,0.775-0.343,0.758-0.762c-0.013-0.418-0.377-0.757-0.813-0.756c-0.265,0-6.577,0.065-10.062,4.845
							c-0.249,0.338-0.153,0.812,0.203,1.06C548.255,77.037,548.321,77.07,548.387,77.094z"/>
					</g>
					<g>
						<g>
							<path fill="#F25B56" d="M554.326,76.581c0.141,0.05,0.294,0.063,0.448,0.031c0.422-0.089,0.68-0.492,0.572-0.901
								c-0.017-0.068-0.448-1.686-2.035-3.15c-0.319-0.295-0.821-0.293-1.115,0.005c-0.298,0.297-0.282,0.778,0.042,1.072
								c1.227,1.133,1.575,2.38,1.579,2.392C553.883,76.293,554.082,76.493,554.326,76.581z"/>
						</g>
					</g>
				</g>
				<path fill="#FDA893" d="M503.488,84.396l-6.585,18.436c0,0,6.208,9.673,12.688,12.635c6.472,2.968,11.594-4.088,11.594-4.088
					l6.129-17.159L503.488,84.396z"/>
				<path fill="#FF877C" d="M502.846,86.203l-2.627,7.354c2.706,6.58,10.04,11.188,22.45,13.66l3.999-11.189L502.846,86.203z"/>
				<path fill="#FDA893" d="M552.573,74.384c-0.846,1.704-1.745,3.426-2.71,5.115c-6.399,11.232-18.608,21.474-28.96,20.227
					c-22.352-2.693-25.137-22-24.166-35.162c0.112-1.462,1.343-2.74,1.616-4.42c0.646-3.977,0.655-8.758,1.805-13.063
					c0.8-2.983,1.653-5.903,2.456-8.529c2.267-7.406,8.877-12.593,16.407-12.852c10.856-0.386,26.357,1.777,37.166,14.679
					c3.991,4.765,5.201,11.379,3.17,17.422C557.803,62.414,555.549,68.367,552.573,74.384z"/>
				<g>
					<g>
						<g>
							<path fill="#FF877C" d="M524.029,74.648c-0.383-0.138-0.626-0.537-0.553-0.952c0.085-0.464,0.526-0.773,0.99-0.69
								l2.926,0.522l-0.186-11.478c-0.008-0.471,0.369-0.859,0.837-0.866c0.473-0.005,0.862,0.368,0.866,0.838l0.22,13.548
								l-4.961-0.886C524.118,74.676,524.073,74.664,524.029,74.648z"/>
						</g>
					</g>
				</g>
				<path fill="#29245D" d="M551.827,51.344c6.764,6.573,0.767,15.258,1.778,21.05c0.066,0.376,0.228,0.498,0.481,0.407
					c3.054-6.125,5.358-12.192,6.938-16.896c2.068-6.162,0.721-12.941-3.523-17.863c-11.492-13.321-27.795-15.705-39.192-15.43
					c-7.907,0.182-14.791,5.417-17.091,12.97c-0.812,2.679-1.676,5.657-2.482,8.701c1.057,1.277,4.203,2.812,3.568,5.017
					c-1.674,5.833-2.789,9.835-1.475,9.92c2.213,0.139,5.928-6.323,5.226-11.607c0,0,2.922-2.348,11.488-2.561
					c10.991-0.272,22.255-2.461,22.255-2.461s4.459-0.897,6.726-2.804C546.522,39.789,546.676,46.338,551.827,51.344z"/>
				
					<ellipse transform="matrix(-0.9416 -0.3368 0.3368 -0.9416 1027.756 310.1412)" fill="#29245D" cx="540.774" cy="65.941" rx="2.161" ry="3.402"/>
				<path fill="#29245D" d="M515.527,56.909c-0.63,1.77-0.232,3.53,0.895,3.932c1.123,0.402,2.549-0.707,3.179-2.477
					c0.634-1.77,0.234-3.53-0.891-3.932C517.585,54.031,516.161,55.141,515.527,56.909z"/>
				<path fill="#29245D" d="M548.744,58.122c-1.525-0.904-4.646-2.614-8.218-3.75c-0.941-0.299-1.936,0.135-2.068,0.92l-0.004,0.02
					c-0.108,0.626,0.381,1.249,1.144,1.458c2.47,0.677,8.74,2.962,11.355,4.878c0.232-0.395,0.112-0.946-0.162-1.486
					C550.376,59.341,549.631,58.65,548.744,58.122z"/>
				<path fill="#29245D" d="M515.861,46.811c1.755,0.241,5.263,0.85,8.763,2.186c0.922,0.351,1.43,1.31,1.048,2.008l-0.012,0.018
					c-0.303,0.558-1.076,0.739-1.803,0.428c-2.352-1.008-8.683-3.128-11.923-3.259c0.064-0.454,0.503-0.808,1.055-1.062
					C513.822,46.745,514.835,46.669,515.861,46.811z"/>
				<path fill="#FFFFFF" d="M531.226,82.61c-1.602,2.603-5.429,7.076-12.098,4.695c-6.681-2.386-6.863-7.79-6.341-11.281
					L531.226,82.61z"/>
				<g>
					<path fill="#FF877C" d="M517.496,92.179c1.923,0.687,3.993,0.258,4.08,0.239c0.452-0.096,0.74-0.541,0.645-0.993
						c-0.097-0.451-0.539-0.737-0.99-0.643l0,0c-0.019,0.003-1.704,0.346-3.17-0.178c-1.587-0.567-2.71-1.916-2.721-1.929
						c-0.292-0.357-0.819-0.41-1.175-0.117c-0.358,0.291-0.412,0.816-0.12,1.174C514.1,89.801,515.459,91.451,517.496,92.179z"/>
				</g>
			</g>
			<g>
				<path fill="#FDA893" d="M502.373,48.492c0,0-3.199-8.87-8.297-5.119c-5.097,3.75-5.599,20.027,3.833,19.379L502.373,48.492z"/>
				<circle fill="#FFFFFF" cx="494.278" cy="61.825" r="1.715"/>
				<g>
					<path fill="#FF877C" d="M497.738,57.606c-0.3-0.108-0.508-0.406-0.483-0.741c0.344-4.958-3.672-8.451-3.713-8.486
						c-0.307-0.262-0.342-0.725-0.079-1.031c0.261-0.308,0.721-0.345,1.03-0.084c0.188,0.161,4.619,3.994,4.221,9.703
						c-0.027,0.404-0.377,0.708-0.779,0.68C497.864,57.643,497.8,57.628,497.738,57.606z"/>
				</g>
				<g>
					<g>
						<g>
							<path fill="#FF877C" d="M493.836,53.654c-0.126-0.045-0.245-0.127-0.332-0.244c-0.249-0.32-0.187-0.78,0.133-1.026
								c0.054-0.041,1.33-1.005,3.334-1.162c0.4-0.033,0.754,0.27,0.785,0.673c0.033,0.403-0.269,0.754-0.671,0.787
								c-1.55,0.12-2.544,0.855-2.555,0.862C494.325,53.703,494.064,53.735,493.836,53.654z"/>
						</g>
					</g>
				</g>
			</g>
			<g>
				<g>
					<path fill="#29245D" d="M527.204,58.296c0.172-0.479,0.23-0.974,0.188-1.455c-0.104-1.317-0.94-2.517-2.254-3.019
						l-11.608-4.439c-0.914-0.349-1.877-0.293-2.704,0.076c-0.454,0.203-0.86,0.498-1.194,0.877
						c-0.28,0.312-0.507,0.674-0.665,1.084l-0.568,1.484c-0.961,2.516-0.895,5.293,0.185,7.632c1.08,2.323,2.704,3.939,4.843,4.808
						l0.307,0.117c2.482,0.949,5.188,0.88,7.625-0.202c2.476-1.094,4.368-3.09,5.338-5.62l0.479-1.255
						C527.185,58.357,527.198,58.326,527.204,58.296z M525.324,59.117c-0.825,2.163-2.445,3.867-4.557,4.802
						c-2.086,0.924-4.395,0.983-6.513,0.173l-0.278-0.107c-1.778-0.727-3.146-2.092-4.061-4.064
						c-0.916-1.978-0.97-4.346-0.149-6.492l0.568-1.484c0.41-1.068,1.604-1.601,2.669-1.192l11.608,4.439
						c1.065,0.406,1.604,1.601,1.194,2.669L525.324,59.117z"/>
				</g>
				<g>
					<path fill="#29245D" d="M551.997,66.864c0.058-0.499-0.008-0.999-0.166-1.466c-0.327-0.958-1.065-1.774-2.08-2.163
						l-11.612-4.441c-1.347-0.515-2.816-0.15-3.771,0.818c-0.323,0.322-0.588,0.713-0.763,1.158
						c-0.014,0.021-0.021,0.04-0.029,0.063l-0.568,1.482c-0.961,2.516-0.891,5.295,0.188,7.634c1.076,2.321,2.704,3.938,4.838,4.806
						l0.311,0.119c2.482,0.949,5.188,0.88,7.625-0.202c2.47-1.096,4.368-3.091,5.338-5.62l0.481-1.256
						C551.906,67.492,551.976,67.18,551.997,66.864z M549.938,68.53c-0.825,2.163-2.445,3.868-4.559,4.8
						c-2.084,0.926-4.393,0.985-6.511,0.175l-0.282-0.107c-1.778-0.728-3.146-2.093-4.061-4.065
						c-0.912-1.977-0.97-4.347-0.149-6.493l0.568-1.484c0.41-1.068,1.608-1.599,2.669-1.192l11.612,4.441
						c1.065,0.406,1.604,1.601,1.193,2.669L549.938,68.53z"/>
				</g>
				<g>
					<path fill="#29245D" d="M510.826,49.459c-0.947-1.031-3.529-3.428-7.922-4.733v1.547c3.624,1.182,5.843,3.149,6.728,4.063
						c0.292,0.3,0.441,0.488,0.45,0.496l1.161-0.89C511.215,49.906,511.078,49.728,510.826,49.459z"/>
				</g>
				<g>
					<path fill="#29245D" d="M526.696,58.26l0.043-1.466c0.091,0.003,2.267,0.078,4.378,0.885c2.248,0.86,3.431,2.104,3.481,2.156
						l-1.069,1.003c-0.008-0.008-1.022-1.058-2.935-1.789C528.723,58.332,526.717,58.26,526.696,58.26z"/>
				</g>
				<g>
					<path fill="#29245D" d="M556.56,65.759c-2.731-0.55-5.201-0.337-5.359-0.321l0.133,1.458c0.037-0.002,2.578-0.218,5.226,0.368
						V65.759z"/>
				</g>
			</g>
		</g>
		<g>
			<g>
				<g>
					<g>
						<g>
							<g>
								<path fill="#CB2242" d="M419.98,199.263c0,0.002,0.12,0.462,0.155,0.477l53.859-0.012
									c-15.046-7.07-25.755-13.439-26.095-13.528c-0.006-0.004,0.286-1.329,0.286-1.329c2.98-9.719,5.261-22.147,8.521-31.873
									c2.273-6.776,5.597-19.052,4.971-31.238c-0.259-5.041-4.01-14.934-6.051-17.33c-11.548,4.706-17.047,21.477-21.227,35.401
									c-6.322,21.054-15.369,45.116-14.416,59.427C419.989,199.261,419.98,199.263,419.98,199.263z"/>
							</g>
						</g>
					</g>
				</g>
			</g>
		</g>
		<path fill="#FDA893" d="M515.743,199.828c0,0,0.473,9.348-2.495,11.924c-2.967,2.573-5.724-10.498-5.724-10.498
			s3.212,15.775-0.493,16.198c-3.705,0.425-7.271-14.935-7.271-14.935s0.512,10.558-2.211,11.176
			c-2.725,0.615-5.798-10.633-5.798-10.633s-0.5,8.171-2.445,8.882c-1.943,0.708-5.661-8.782-5.823-13.616
			c-0.157-4.835,6.689-1.9,6.689-1.9s5.226-1.642,7.75,0.317c0,0,4.476-2.215,7.735-0.781
			C505.658,195.962,513.308,193.558,515.743,199.828z"/>
	</g>
</g>
</svg>
